<?xml version="1.0" encoding="UTF-8" standalone="no"?>
<!-- Created with Inkscape (http://www.inkscape.org/) -->

<svg
   xmlns:dc="http://purl.org/dc/elements/1.1/"
   xmlns:cc="http://creativecommons.org/ns#"
   xmlns:rdf="http://www.w3.org/1999/02/22-rdf-syntax-ns#"
   xmlns:svg="http://www.w3.org/2000/svg"
   xmlns="http://www.w3.org/2000/svg"
   xmlns:sodipodi="http://sodipodi.sourceforge.net/DTD/sodipodi-0.dtd"
   xmlns:inkscape="http://www.inkscape.org/namespaces/inkscape"
   version="1.1"
   id="svg2"
   width="997.33331"
   height="849.33331"
   viewBox="0 0 997.33331 849.33331"
   sodipodi:docname="Untitled.svg"
   inkscape:version="0.92.3 (2405546, 2018-03-11)">
  <metadata
     id="metadata8">
    <rdf:RDF>
      <cc:Work
         rdf:about="">
        <dc:format>image/svg+xml</dc:format>
        <dc:type
           rdf:resource="http://purl.org/dc/dcmitype/StillImage" />
        <dc:title></dc:title>
      </cc:Work>
    </rdf:RDF>
  </metadata>
  <defs
     id="defs6" />
  <sodipodi:namedview
     pagecolor="#ffffff"
     bordercolor="#666666"
     borderopacity="1"
     objecttolerance="10"
     gridtolerance="10"
     guidetolerance="10"
     inkscape:pageopacity="0"
     inkscape:pageshadow="2"
     inkscape:window-width="1920"
     inkscape:window-height="993"
     id="namedview4"
     showgrid="false"
     inkscape:zoom="0.92585486"
     inkscape:cx="425.99749"
     inkscape:cy="346.41348"
     inkscape:window-x="0"
     inkscape:window-y="30"
     inkscape:window-maximized="1"
     inkscape:current-layer="svg2" />
  <g
     id="g916"
     transform="matrix(1.1071254,0,0,1.1071254,-97.198108,-5.5705204)">
    <path
       id="path886"
       d="m 273.4707,52 c -1.96961,0 -7.46795,37.370342 -45.2539,307.66602 -23.65562,169.21666 -42.98187,308.65127 -42.94727,309.85351 0.0642,2.22707 0.58034,2.36729 62.73047,17.17578 13.04096,3.10727 93.85567,14.85619 293.33398,42.64258 151.43333,21.09395 276.32996,38.42261 277.54883,38.50781 1.56984,0.1098 2.45518,-1.30386 3.03516,-4.8457 3.61411,-22.07089 85.89117,-614.30216 85.41015,-614.7832 C 905.91738,146.80607 830.3248,129.11612 818,127.3125 783.95624,122.33051 275.44814,52 273.4707,52 Z m 283.66992,191.50586 c 2.04202,-0.1012 2.6504,0.49276 2.6504,1.67969 0,2.14323 4.09673,10.11323 8.0996,15.75781 7.51771,10.60091 16.47284,16.06597 30.39454,18.54883 12.30344,2.19424 36.50417,7.94292 41.81836,9.93359 9.77335,3.66103 12.36475,6.90016 23.55664,29.4375 9.48303,19.09619 12.52118,27.54884 16.33007,45.44336 5.02552,23.61034 5.04428,23.4415 -3.72265,32.83203 -4.18216,4.47964 -7.20053,8.53701 -8.66797,11.65039 -7.3018,15.49181 -5.93161,36.72088 3.03516,47 1.20363,1.37979 2.18945,3.17628 2.18945,3.99219 0,2.82955 -3.90232,11.88717 -10.03125,23.28516 -9.96037,18.52333 -16.04625,26.87539 -30.81445,42.28711 -7.60296,7.93426 -14.80703,13.76886 -27.20704,22.0332 l -9.625,6.41406 -6.41406,-1.61523 c -3.52671,-0.88917 -10.36274,-2.78578 -15.19336,-4.21485 -10.81194,-3.19857 -18.91633,-4.50092 -24.00586,-3.85742 -15.5989,1.97226 -30.85732,13.26968 -38.96289,28.84766 -1.57,3.01735 -3.0386,4.88104 -3.94336,5.00195 -0.79312,0.106 -3.16145,-0.7639 -5.26172,-1.93164 -12.1377,-6.74848 -28.83519,-19.57519 -41.58789,-31.94922 l -8.74609,-8.48828 4.0918,-4.87891 c 2.25077,-2.68369 4.90609,-6.64579 5.90039,-8.80468 2.15041,-4.66908 3.62088,-15.339 3.10937,-22.5625 -0.71843,-10.14588 -9.50943,-23.37333 -18.55469,-27.91797 -4.41005,-2.21576 -11.83173,-4.44643 -21.14453,-6.35352 -4.50799,-0.92315 -8.73834,-2.07449 -9.40039,-2.55859 -0.7604,-0.55602 -2.06929,-4.95001 -3.55273,-11.93164 -2.21779,-10.43773 -2.35296,-12.04977 -2.4375,-29 -0.0694,-13.9124 0.21914,-19.89785 1.28515,-26.62305 1.80794,-11.4059 5.76073,-26.88543 9.29102,-36.38477 3.30518,-8.89359 13.76962,-30.93615 14.67969,-30.92187 0.34189,0.005 3.25971,0.85289 6.48437,1.88281 11.65281,3.72179 21.36213,3.28173 31.52735,-1.42968 10.31016,-4.7786 17.41847,-13.3631 20.25781,-24.46485 2.52932,-9.88953 1.86318,-19.08517 -2.01953,-27.89062 -1.00873,-2.28767 -1.67863,-4.5618 -1.49024,-5.05274 0.54902,-1.43073 21.25654,-12.47157 30.14063,-16.07031 4.47353,-1.81213 14.01086,-4.99457 21.19531,-7.07422 9.12441,-2.64119 14.12064,-3.92067 16.74609,-4.05078 z"
       style="display:inline;fill:#598ccd;fill-opacity:1;stroke-width:1.33333325"
       inkscape:connector-curvature="0" />
    <path
       inkscape:connector-curvature="0"
       id="path16"
       d="M 541.33332,729.33734 C 341.85501,701.55095 261.04095,689.80313 247.99999,686.69586 c -62.15013,-14.80849 -62.66547,-14.9496 -62.72963,-17.17667 -0.0346,-1.20224 19.29161,-140.63587 42.94723,-309.85253 37.78595,-270.295674 43.28254,-307.666661 45.25215,-307.666661 1.97744,0 510.48648,70.330461 544.53024,75.312451 12.3248,1.80362 87.91712,19.49356 89.32787,20.90429 0.48102,0.48104 -81.79607,592.71235 -85.41018,614.78324 -0.57998,3.54184 -1.46505,4.9548 -3.03489,4.845 -1.21887,-0.0852 -126.11613,-17.41369 -277.54946,-38.50764 z m 277.86786,30.99597 c 1.95929,-9.62486 84.88261,-606.24678 84.5216,-608.12137 -0.31757,-1.64898 -9.23896,-4.26533 -38.25344,-11.21849 -20.81161,-4.98739 -38.08553,-8.82173 -38.38648,-8.52077 -0.56468,0.56467 -85.74954,607.46418 -85.74954,610.92251 0,1.16982 -1.29971,1.93812 -3.27864,1.93812 -1.80326,0 -122.16055,-16.5 -267.46064,-36.66666 -145.30009,-20.16667 -265.1747,-36.62736 -266.38802,-36.57932 -1.2133,0.048 12.59303,3.6869 30.68076,8.08636 32.81421,7.98134 33.48515,8.08234 303.99999,45.7667 149.11227,20.77224 273.01554,37.83339 275.3406,37.91366 3.59162,0.124 4.33965,-0.40552 4.97381,-3.52074 z m -80.50658,-20 c 0.0153,-1.28333 19.0805,-138.30798 42.36697,-304.49922 L 823.40058,133.66821 782.03361,127.9413 C 759.28178,124.7915 636.26665,107.719 508.66665,90.0024 381.06666,72.285803 276.4847,58.233448 276.2623,58.774944 c -0.7732,1.882618 -85.31964,607.228066 -84.875,607.697996 0.43927,0.46426 540.37646,75.83876 544.94602,76.07373 1.36946,0.0704 2.34488,-0.84389 2.36128,-2.21336 z M 480.62048,581.9574 c -19.43028,-2.7957 -23.22494,-3.81298 -41.62044,-11.15764 -17.51072,-6.9914 -22.5402,-9.7279 -37.28716,-20.28751 -19.2662,-13.79565 -18.03922,-12.65456 -34.83813,-32.40001 -10.57476,-12.4296 -14.02364,-17.77893 -22.80925,-35.37804 -9.46796,-18.96596 -10.76164,-22.56016 -15.16945,-42.1448 -4.76788,-21.18453 -4.81112,-21.64906 -4.09638,-44 0.66928,-20.92889 1.12895,-24.1551 6.25326,-43.8888 5.03074,-19.37341 6.49165,-23.05064 16.15613,-40.66666 9.11866,-16.62112 12.70033,-21.63599 25.25962,-35.36728 12.38312,-13.53869 17.52359,-17.96595 33.41616,-28.77987 16.97906,-11.5532 20.7655,-13.49786 39.44848,-20.26012 19.57942,-7.08672 21.85915,-7.60054 43.33334,-9.76674 22.39601,-2.25919 22.92139,-2.25166 43.99999,0.6306 19.63555,2.68493 22.97806,3.56842 42,11.10137 18.30342,7.2484 22.70674,9.64553 38.50711,20.96285 15.25089,10.92376 19.91915,15.19875 32.16148,29.45211 12.67777,14.76033 15.51048,19.04416 24.6869,37.33333 9.33402,18.60328 10.81107,22.63927 14.83851,40.54556 4.18704,18.61588 4.47087,21.42568 4.44448,44 l -0.0281,24.11424 -5.82611,21.52617 c -5.14295,19.002 -7.04488,23.77059 -16.21975,40.66667 -8.96462,16.50893 -12.40392,21.34028 -25.01549,35.14049 -12.40908,13.57863 -17.51782,17.97648 -33.75782,29.06028 -17.31032,11.81429 -21.07287,13.7634 -39.43867,20.43038 -20.65513,7.49804 -23.96548,8.12958 -61.01912,11.64098 -3.3,0.31273 -15.62077,-0.81567 -27.3795,-2.50756 z m 18.67619,-2.43511 c -10.59613,-7.29648 -25.05388,-15.52231 -27.28209,-15.52231 -1.73031,0 -2.68126,-0.88437 -2.68126,-2.49354 0,-1.41446 -5.50578,-7.74091 -12.7227,-14.61908 l -12.72271,-12.12555 -30.94396,-7.38021 c -17.01917,-4.05911 -31.98581,-7.98052 -33.2592,-8.71424 -1.27339,-0.73372 -3.07339,-1.3484 -4,-1.36595 -2.40564,-0.0456 -14.39205,-17.41678 -20.67844,-29.96809 -6.85542,-13.68744 -12.79285,-29.56248 -11.9136,-31.85375 1.70988,-4.45589 28.32423,-2.53229 36.50441,2.63842 2.14616,1.35658 3.18266,1.44433 3.87268,0.32784 0.5805,-0.93927 0.35126,-1.15931 -0.59713,-0.57316 -0.84664,0.52325 -1.53935,0.27552 -1.53935,-0.55051 0,-0.82603 1.05,-1.19461 2.33334,-0.81908 2.48237,0.72641 25.62832,6.16357 26.23828,6.16357 0.19858,0 -0.78767,-5.85 -2.19167,-13 -2.09201,-10.65376 -2.44484,-16.97056 -1.95493,-34.99999 0.53832,-19.81131 1.08204,-23.90148 5.46526,-41.11302 3.57664,-14.04436 6.77118,-22.9089 12.04603,-33.42664 l 7.17855,-14.31362 -18.89076,-4.48728 c -10.38992,-2.46802 -19.55691,-5.27603 -20.37108,-6.24003 -0.81419,-0.96401 -3.0048,-1.75275 -4.86806,-1.75275 -4.15102,0 -21.38476,-7.1994 -22.0563,-9.21402 -1.24619,-3.73859 22.73736,-31.31601 37.49186,-43.10993 9.53635,-7.62283 12.89435,-9.18311 12.93323,-6.00938 0.0153,1.2456 0.27232,1.27063 1.01745,0.0991 0.72948,-1.14693 9.74868,0.54667 33.61171,6.31152 l 32.61468,7.87909 16.82465,-9.13726 c 15.40133,-8.36428 20.66551,-10.36383 48.24443,-18.32523 1.28333,-0.37047 2.33333,-1.53315 2.33333,-2.58373 0,-1.05058 0.9,-1.91015 2,-1.91015 1.1,0 2,0.6 2,1.33333 0,0.73334 1.8,1.33334 4,1.33334 3.85008,0 4,-0.22422 4,-5.98211 0,-5.52941 -0.33916,-6.12381 -4.48183,-7.85473 -2.465,-1.02995 -13.94469,-3.18391 -25.51042,-4.78659 -20.59116,-2.85335 -21.4618,-2.86828 -41.85152,-0.7182 -19.15431,2.0198 -22.47896,2.79352 -41.48956,9.65548 -18.7136,6.75477 -22.44161,8.66748 -39.44848,20.23961 -15.89257,10.81392 -21.03304,15.24118 -33.41616,28.77987 -12.55929,13.73129 -16.14096,18.74616 -25.25962,35.36728 -9.65358,17.59612 -11.1323,21.31513 -16.16956,40.66666 -4.99396,19.18512 -5.6065,23.28467 -6.17087,41.29939 -0.60128,19.19284 -0.43541,20.86097 4.1098,41.33333 4.35263,19.60484 5.57501,23.01328 15.08707,42.06755 8.78561,17.5991 12.23449,22.94844 22.80925,35.37804 16.7989,19.74545 15.57193,18.60436 34.83813,32.40001 14.74081,10.55521 19.7796,13.29736 37.25653,20.27528 17.00988,6.79144 22.86172,8.45556 36.95378,10.50876 9.2089,1.34173 18.22697,2.49896 20.04014,2.5716 3.17316,0.1272 3.19813,0.0643 0.66667,-1.67894 z m 11.84757,-6.89009 c 3.31953,-8.07171 14.53935,-19.30278 23.819,-23.84288 11.22351,-5.49116 20.74987,-5.94801 34.54067,-1.65646 6.1395,1.91055 14.46274,4.28116 18.49608,5.26803 l 7.33333,1.79429 14,-9.37465 c 10.77357,-7.21416 17.24791,-12.92132 28.09316,-24.76426 12.25466,-13.382 15.51598,-18.01722 25,-35.53179 11.12345,-20.54223 12.61192,-25.45707 8.69014,-28.69457 -6.31329,-5.21176 -9.77272,-22.34075 -7.1137,-35.22271 2.24532,-10.87772 5.6442,-17.03149 13.4023,-24.26525 8.1622,-7.61053 8.22434,-8.65855 2.1221,-35.78953 -4.02511,-17.89595 -5.50938,-21.95372 -14.83336,-40.55243 -15.01523,-29.95109 -13.61934,-28.76445 -41.92205,-35.63746 -12.89123,-3.1305 -25.27079,-5.69272 -27.51014,-5.69384 -6.12628,-0.003 -16.8866,-5.97455 -23.13237,-12.83743 -5.68991,-6.25208 -12.12941,-17.46485 -12.12941,-21.12028 0,-2.97841 -2.3279,-2.62936 -23.10707,3.46479 -13.80264,4.04804 -22.68847,7.64064 -33.50532,13.54638 -8.09652,4.42051 -14.94786,8.21834 -15.22522,8.43962 -0.27735,0.22128 0.87805,3.27541 2.56756,6.78694 4.17177,8.67083 4.13124,22.33868 -0.0955,32.16379 -7.91092,18.38944 -29.49101,27.26589 -49.52796,20.37217 l -7.31091,-2.51532 -7.53741,15.14228 c -15.859,31.85988 -21.984,72.71041 -15.76351,105.13424 1.53836,8.01857 3.25638,15.02246 3.8178,15.56421 0.56143,0.54173 4.92079,1.67376 9.68746,2.5156 21.53845,3.80388 30.38781,9.49624 37.01582,23.81043 2.88956,6.24042 3.22996,8.49968 2.71204,18 -0.63556,11.65821 -2.32182,16.07612 -8.94578,23.43736 -2.26348,2.51541 -4.11542,4.73936 -4.11542,4.9421 0,0.20275 5.76308,5.94468 12.80686,12.75985 12.25101,11.85342 38.44971,30.25912 43.19314,30.34502 1.13388,0.0205 3.07295,-2.57272 4.47759,-5.98824 z m 20.85575,4.00485 c 7.90454,-0.61161 16.17398,-2.50497 27.33333,-6.25821 8.8,-2.95972 16.15788,-5.51363 16.35084,-5.67536 0.19296,-0.16174 -0.53911,-2.42398 -1.6268,-5.0272 -3.98912,-9.5473 -18.39523,-12.86034 -32.72404,-7.5257 -4.03333,1.50162 -8.34048,2.8106 -9.57143,2.90886 -1.23096,0.0983 -2.13096,0.80006 -2,1.5596 0.13094,0.75952 -0.76956,1.3886 -2.00113,1.39794 -1.23157,0.009 -2.73157,0.55556 -3.33333,1.21378 -0.63244,0.69178 -0.2502,0.78353 0.90589,0.21745 1.63107,-0.79867 1.61583,-0.65363 -0.0827,0.78623 -1.14545,0.97105 -2.47874,2.8211 -2.9629,4.11125 -0.48415,1.29013 -1.64696,2.19013 -2.58403,2 -0.93708,-0.19015 -1.54773,0.42241 -1.35701,1.36123 0.1907,0.9388 -0.5593,3.45901 -1.66667,5.60045 -2.67548,5.17379 -2.55443,5.77837 0.98657,4.92748 1.65,-0.39649 8.1,-1.11551 14.33334,-1.5978 z m 57.0976,-15.62483 c 2.43701,-1.47604 3.93701,-3.12498 3.33333,-3.66432 -0.98548,-0.88045 -17.61895,-5.34792 -19.9116,-5.34792 -0.51295,0 -0.0384,1.05 1.05443,2.33334 1.09288,1.28333 2.76501,4.29865 3.71584,6.7007 1.9311,4.87848 3.72285,4.87518 11.808,-0.0217 z M 448.94134,530.28561 c 0.88441,-0.0349 1.37706,-0.43708 1.09481,-0.8938 -0.28227,-0.4567 1.24412,-3.447 3.39197,-6.64508 2.14787,-3.19808 3.9052,-6.90128 3.9052,-8.22933 0,-2.73341 1.13442,-2.37297 -34.39504,-10.92863 l -24.39504,-5.87445 -1.75578,4.20221 c -0.96568,2.3112 -4.53744,6.65071 -7.93724,9.64332 l -6.18144,5.44112 28.99893,6.92798 c 15.94943,3.81038 29.59895,7.13762 30.33228,7.39386 0.73333,0.25624 2.23333,0.14198 3.33333,-0.25394 1.1,-0.39591 2.72362,-0.74838 3.60802,-0.78326 z m -65.25183,-21.83948 c 5.92596,-4.85586 9.01932,-10.17593 11.11321,-19.11281 2.99383,-12.77783 -8.0432,-26.92249 -24.64406,-31.58299 -5.99712,-1.68361 -23.03977,-2.64702 -24.31243,-1.37436 -0.91586,0.91587 7.76258,21.78635 13.15001,31.62402 6.66675,12.1737 15.73766,25.33333 17.46224,25.33333 0.69678,0 3.95074,-2.19923 7.23103,-4.88719 z m 71.92831,-16.8044 c -6.39982,-13.85662 -13.8247,-18.1884 -43.94976,-25.64085 -10.45078,-2.58535 -20.05938,-4.93911 -21.35246,-5.23057 -1.65388,-0.37279 -0.76626,1.46048 2.9932,6.18218 5.82322,7.31364 8.68403,15.41662 7.51198,21.27692 -0.64488,3.22439 -0.24875,3.86692 2.88245,4.6753 1.99656,0.51544 15.03009,3.69784 28.96343,7.072 l 25.33333,6.13485 0.41967,-3.74737 c 0.23082,-2.06106 -1.03002,-6.88615 -2.80184,-10.72246 z m 220.74439,-35.81285 c -0.95011,-0.95011 -1.06608,-2.30115 -0.31473,-3.66667 1.36466,-2.48021 6.90128,-23.02669 6.33048,-23.49252 -0.20788,-0.16965 -3.52798,-0.7104 -7.37798,-1.20166 -6.99897,-0.8931 -7,-0.89267 -7,2.86213 0,2.06544 0.93356,7.03611 2.07459,11.04592 1.14101,4.00981 2.226,8.29052 2.41108,9.51267 0.35339,2.33356 3.29472,6.44457 4.61092,6.44457 0.42355,0 0.0931,-0.677 -0.73436,-1.50444 z m 7.54264,-47.16222 c -0.12293,-7.7 -0.35892,-14 -0.52427,-14 -0.16534,0 -1.44362,1.33966 -2.84061,2.97702 -2.51429,2.94691 -2.51301,2.95726 0.12667,1.02298 2.63332,-1.92962 2.63526,-1.91722 0.15513,0.99153 -1.38133,1.62007 -3.0462,2.61513 -3.69969,2.21125 -0.6535,-0.40388 -1.02331,0.0603 -0.82182,1.03144 0.20151,0.97118 -0.42822,1.60091 -1.3994,1.3994 -0.97117,-0.20149 -1.4233,0.18775 -1.00474,0.865 0.41856,0.67726 -0.42367,3.84212 -1.87162,7.03304 -4.17996,9.21158 -3.65056,9.98718 7.03972,10.31367 l 5.06424,0.15467 -0.22362,-14 z m -217.00538,-84.4807 c 8.45445,-3.624 14.40211,-9.18598 17.90283,-16.74193 1.69834,-3.66572 2.94017,-6.81266 2.75961,-6.99324 -0.42299,-0.42298 -55.56145,-13.78413 -56.88404,-13.78413 -0.54889,0 -1.75776,2.71367 -2.68637,6.03036 -1.76379,6.2996 -8.88732,15.07078 -14.65818,18.04853 -1.83333,0.946 -5.7163,2.42644 -8.62882,3.28988 l -5.2955,1.56988 19.96216,4.80815 c 28.60315,6.88942 38.43606,7.66989 47.52831,3.7725 z m 14.43385,-6.18597 c 1.72234,-1.83333 2.83151,-3.33333 2.46484,-3.33333 -0.36666,0 -2.07584,1.5 -3.79817,3.33333 -1.72233,1.83333 -2.83151,3.33333 -2.46484,3.33333 0.36667,0 2.07584,-1.5 3.79817,-3.33333 z m -84.3611,-2.80556 c -0.44306,-0.44305 -1.59307,-0.49041 -2.55556,-0.1052 -1.06364,0.42563 -0.74771,0.74157 0.80556,0.80555 1.40554,0.0579 2.19305,-0.25724 1.75,-0.7003 z m 6.85924,-6.60124 c 13.32461,-3.95699 21.35564,-16.2343 19.39896,-29.65586 -1.27494,-8.74524 -7.98116,-21.604 -11.26714,-21.604 -0.5262,0 -4.67562,2.97277 -9.22094,6.60617 -9.11143,7.28341 -21.91058,20.76407 -30.39852,32.01713 l -5.49868,7.28999 8.24409,3.61344 c 9.64361,4.22685 18.53879,4.76322 28.74223,1.73313 z m 84.20852,-21.08258 c -1.58458,-7.02578 -5.63104,-14.36003 -8.58446,-15.55939 -1.53388,-0.62289 -14.48886,-3.89964 -28.78886,-7.28165 -14.3,-3.38203 -27.06192,-6.46046 -28.35983,-6.84095 -1.96403,-0.57577 -1.79321,0.14315 1.01831,4.28616 1.85797,2.73788 3.73336,7.19936 4.1675,9.9144 0.43415,2.71503 1.26088,5.69936 1.83719,6.63183 1.38047,2.23365 57.74307,15.94353 58.83253,14.31069 0.45598,-0.6834 0.40091,-3.14088 -0.1224,-5.46109 z m 157.27111,-2.73284 c -0.79444,-0.79444 -2.16444,-1.45892 -3.04444,-1.4766 -0.88,-0.0177 -1.5227,-1.03142 -1.42825,-2.25272 0.0945,-1.22131 -1.40553,-3.60683 -3.33333,-5.30118 l -3.50508,-3.08061 3.33333,3.99224 c 1.83333,2.19575 -0.51296,0.41141 -5.21399,-3.96517 -7.9116,-7.3656 -8.63706,-7.7563 -9.75406,-5.25299 -0.66372,1.48744 -3.56743,4.16343 -6.4527,5.94661 -2.88525,1.78319 -5.24592,3.5746 -5.24592,3.98092 0,0.75124 31.24788,8.77312 34.37777,8.82538 1.2285,0.0205 1.30371,-0.37884 0.26667,-1.41588 z m -32.65388,-11.42918 c 0.46712,-0.75581 -0.0681,-0.97933 -1.25464,-0.52401 -2.30989,0.88639 -2.73252,1.84208 -0.81461,1.84208 0.69005,0 1.62123,-0.59313 2.06925,-1.31807 z m -2.81261,-1.86441 c 7.50565,-3.13607 12.73889,-13.47852 6.82205,-13.48243 -1.46666,-9.7e-4 -2.5402,-0.68117 -2.38562,-1.51156 0.15458,-0.8304 -0.73095,-1.4304 -1.96783,-1.33333 -1.23689,0.0971 -2.26336,-0.72275 -2.28105,-1.82177 -0.0177,-1.09904 -1.23216,-1.99904 -2.69883,-2 -1.46667,-9.8e-4 -2.5402,-0.68118 -2.38563,-1.51156 0.15459,-0.8304 -0.73094,-1.4304 -1.96782,-1.33334 -1.2369,0.0971 -2.26336,-0.72274 -2.28106,-1.82177 -0.0177,-1.09904 -1.23216,-1.99904 -2.69882,-2 -1.5081,-0.001 -2.5075,-0.76893 -2.3003,-1.76753 0.2015,-0.97118 -0.25226,-1.38344 -1.00837,-0.91615 -1.35316,0.83631 -12.47472,-2.67559 -23.80188,-7.51599 -3.17745,-1.35781 -6.06423,-2.46876 -6.41503,-2.46876 -1.92686,0 1.76122,13.8205 5.57004,20.87288 2.4376,4.51342 4.02479,8.61342 3.5271,9.11111 -0.4977,0.49769 -0.0799,0.70491 0.92844,0.46045 1.00833,-0.24444 2.13617,0.38908 2.5063,1.40783 0.46098,1.26876 0.0935,1.52216 -1.16666,0.80439 -1.51031,-0.86028 -1.53211,-0.71726 -0.12174,0.79893 0.94483,1.01573 2.74483,1.85376 4,1.86227 1.25519,0.008 2.11728,0.81008 1.91578,1.78125 -0.2015,0.97117 0.18652,1.42408 0.86225,1.00644 0.67575,-0.41763 3.2406,0.11427 5.69971,1.18204 5.71238,2.48035 15.96052,2.57341 21.64902,0.1966 z m 23.48872,-1.27753 c 0,-0.25302 -1.35,-1.60302 -3,-3 l -3,-2.53999 2.53999,3 c 2.38696,2.81925 3.46001,3.60699 3.46001,2.53999 z m -432.3611,400.98777 c -0.44306,-0.44305 -1.59306,-0.49041 -2.55556,-0.1052 -1.06364,0.42563 -0.7477,0.74157 0.80556,0.80555 1.40555,0.0579 2.19306,-0.25724 1.75,-0.7003 z"
       style="display:inline;fill:#000000;stroke-width:1.33333325" />
    <path
       inkscape:connector-curvature="0"
       id="path884"
       d="m 819.20118,760.33331 c 1.95929,-9.62486 84.88261,-606.24678 84.5216,-608.12137 -0.31757,-1.64898 -9.23896,-4.26533 -38.25344,-11.21849 -20.81161,-4.98739 -38.08553,-8.82173 -38.38648,-8.52077 -0.56468,0.56467 -85.74954,607.46418 -85.74954,610.92251 0,1.16982 -1.29971,1.93812 -3.27864,1.93812 -1.80326,0 -122.16055,-16.5 -267.46064,-36.66666 -145.30009,-20.16667 -265.1747,-36.62736 -266.38802,-36.57932 -1.2133,0.048 12.59303,3.6869 30.68076,8.08636 32.81421,7.98134 33.48515,8.08234 303.99999,45.7667 149.11227,20.77224 273.01554,37.83339 275.3406,37.91366 3.59162,0.124 4.33965,-0.40552 4.97381,-3.52074 z"
       style="display:inline;fill:#9fa049;fill-opacity:1;stroke-width:1.33333325" />
    <path
       inkscape:connector-curvature="0"
       id="path882"
       d="m 738.6946,740.33331 c 0.0153,-1.28333 19.0805,-138.30798 42.36697,-304.49922 L 823.40058,133.66821 782.03361,127.9413 C 759.28178,124.7915 636.26665,107.719 508.66665,90.0024 381.06666,72.285803 276.4847,58.233448 276.2623,58.774944 c -0.7732,1.882618 -85.31964,607.228066 -84.875,607.697996 0.43927,0.46426 540.37646,75.83876 544.94602,76.07373 1.36946,0.0704 2.34488,-0.84389 2.36128,-2.21336 z"
       style="display:inline;fill:none;fill-opacity:1;stroke-width:1.33333325" />
    <path
       inkscape:connector-curvature="0"
       id="path880"
       d="m 480.62048,581.9574 c -19.43028,-2.7957 -23.22494,-3.81298 -41.62044,-11.15764 -17.51072,-6.9914 -22.5402,-9.7279 -37.28716,-20.28751 -19.2662,-13.79565 -18.03922,-12.65456 -34.83813,-32.40001 -10.57476,-12.4296 -14.02364,-17.77893 -22.80925,-35.37804 -9.46796,-18.96596 -10.76164,-22.56016 -15.16945,-42.1448 -4.76788,-21.18453 -4.81112,-21.64906 -4.09638,-44 0.66928,-20.92889 1.12895,-24.1551 6.25326,-43.8888 5.03074,-19.37341 6.49165,-23.05064 16.15613,-40.66666 9.11866,-16.62112 12.70033,-21.63599 25.25962,-35.36728 12.38312,-13.53869 17.52359,-17.96595 33.41616,-28.77987 16.97906,-11.5532 20.7655,-13.49786 39.44848,-20.26012 19.57942,-7.08672 21.85915,-7.60054 43.33334,-9.76674 22.39601,-2.25919 22.92139,-2.25166 43.99999,0.6306 19.63555,2.68493 22.97806,3.56842 42,11.10137 18.30342,7.2484 22.70674,9.64553 38.50711,20.96285 15.25089,10.92376 19.91915,15.19875 32.16148,29.45211 12.67777,14.76033 15.51048,19.04416 24.6869,37.33333 9.33402,18.60328 10.81107,22.63927 14.83851,40.54556 4.18704,18.61588 4.47087,21.42568 4.44448,44 l -0.0281,24.11424 -5.82611,21.52617 c -5.14295,19.002 -7.04488,23.77059 -16.21975,40.66667 -8.96462,16.50893 -12.40392,21.34028 -25.01549,35.14049 -12.40908,13.57863 -17.51782,17.97648 -33.75782,29.06028 -17.31032,11.81429 -21.07287,13.7634 -39.43867,20.43038 -20.65513,7.49804 -23.96548,8.12958 -61.01912,11.64098 -3.3,0.31273 -15.62077,-0.81567 -27.3795,-2.50756 z"
       style="display:inline;fill:none;fill-opacity:1;stroke-width:1.33333325" />
    <path
       id="path878"
       d="m 499.29667,579.52229 c -10.59613,-7.29648 -25.05388,-15.52231 -27.28209,-15.52231 -1.73031,0 -2.68126,-0.88437 -2.68126,-2.49354 0,-1.41446 -5.50578,-7.74091 -12.7227,-14.61908 l -12.72271,-12.12555 -30.94396,-7.38021 c -17.01917,-4.05911 -31.98581,-7.98052 -33.2592,-8.71424 -1.27339,-0.73372 -3.07339,-1.3484 -4,-1.36595 -2.40564,-0.0456 -14.39205,-17.41678 -20.67844,-29.96809 -6.85542,-13.68744 -12.79285,-29.56248 -11.9136,-31.85375 1.70988,-4.45589 28.32423,-2.53229 36.50441,2.63842 2.14616,1.35658 3.18266,1.44433 3.87268,0.32784 0.5805,-0.93927 0.35126,-1.15931 -0.59713,-0.57316 -0.84664,0.52325 -1.53935,0.27552 -1.53935,-0.55051 0,-0.82603 1.05,-1.19461 2.33334,-0.81908 2.48237,0.72641 25.62832,6.16357 26.23828,6.16357 0.19858,0 -0.78767,-5.85 -2.19167,-13 -2.09201,-10.65376 -2.44484,-16.97056 -1.95493,-34.99999 0.53832,-19.81131 1.08204,-23.90148 5.46526,-41.11302 3.57664,-14.04436 6.77118,-22.9089 12.04603,-33.42664 l 7.17855,-14.31362 -18.89076,-4.48728 c -10.38992,-2.46802 -19.55691,-5.27603 -20.37108,-6.24003 -0.81419,-0.96401 -3.0048,-1.75275 -4.86806,-1.75275 -4.15102,0 -21.38476,-7.1994 -22.0563,-9.21402 -1.24619,-3.73859 22.73736,-31.31601 37.49186,-43.10993 9.53635,-7.62283 12.89435,-9.18311 12.93323,-6.00938 0.0153,1.2456 0.27232,1.27063 1.01745,0.0991 0.72948,-1.14693 9.74868,0.54667 33.61171,6.31152 l 32.61468,7.87909 16.82465,-9.13726 c 15.40133,-8.36428 20.66551,-10.36383 48.24443,-18.32523 1.28333,-0.37047 2.33333,-1.53315 2.33333,-2.58373 0,-1.05058 0.9,-1.91015 2,-1.91015 1.1,0 2,0.6 2,1.33333 0,0.73334 1.8,1.33334 4,1.33334 3.85008,0 4,-0.22422 4,-5.98211 0,-5.52941 -0.33916,-6.12381 -4.48183,-7.85473 -2.465,-1.02995 -13.94469,-3.18391 -25.51042,-4.78659 -20.59116,-2.85335 -21.4618,-2.86828 -41.85152,-0.7182 -19.15431,2.0198 -22.47896,2.79352 -41.48956,9.65548 -18.7136,6.75477 -22.44161,8.66748 -39.44848,20.23961 -15.89257,10.81392 -21.03304,15.24118 -33.41616,28.77987 -12.55929,13.73129 -16.14096,18.74616 -25.25962,35.36728 -9.65358,17.59612 -11.1323,21.31513 -16.16956,40.66666 -4.99396,19.18512 -5.6065,23.28467 -6.17087,41.29939 -0.60128,19.19284 -0.43541,20.86097 4.1098,41.33333 4.35263,19.60484 5.57501,23.01328 15.08707,42.06755 8.78561,17.5991 12.23449,22.94844 22.80925,35.37804 16.7989,19.74545 15.57193,18.60436 34.83813,32.40001 14.74081,10.55521 19.7796,13.29736 37.25653,20.27528 17.00988,6.79144 22.86172,8.45556 36.95378,10.50876 9.2089,1.34173 18.22697,2.49896 20.04014,2.5716 3.17316,0.1272 3.19813,0.0643 0.66667,-1.67894 z"
       style="display:inline;fill:#f42457;fill-opacity:1;stroke-width:1.33333325"
       inkscape:connector-curvature="0" />
    <path
       id="path876"
       d="m 511.14424,572.6322 c 3.31953,-8.07171 14.53935,-19.30278 23.819,-23.84288 11.22351,-5.49116 20.74987,-5.94801 34.54067,-1.65646 6.1395,1.91055 14.46274,4.28116 18.49608,5.26803 l 7.33333,1.79429 14,-9.37465 c 10.77357,-7.21416 17.24791,-12.92132 28.09316,-24.76426 12.25466,-13.382 15.51598,-18.01722 25,-35.53179 11.12345,-20.54223 12.61192,-25.45707 8.69014,-28.69457 -6.31329,-5.21176 -9.77272,-22.34075 -7.1137,-35.22271 2.24532,-10.87772 5.6442,-17.03149 13.4023,-24.26525 8.1622,-7.61053 8.22434,-8.65855 2.1221,-35.78953 -4.02511,-17.89595 -5.50938,-21.95372 -14.83336,-40.55243 -15.01523,-29.95109 -13.61934,-28.76445 -41.92205,-35.63746 -12.89123,-3.1305 -25.27079,-5.69272 -27.51014,-5.69384 -6.12628,-0.003 -16.8866,-5.97455 -23.13237,-12.83743 -5.68991,-6.25208 -12.12941,-17.46485 -12.12941,-21.12028 0,-2.97841 -2.3279,-2.62936 -23.10707,3.46479 -13.80264,4.04804 -22.68847,7.64064 -33.50532,13.54638 -8.09652,4.42051 -14.94786,8.21834 -15.22522,8.43962 -0.27735,0.22128 0.87805,3.27541 2.56756,6.78694 4.17177,8.67083 4.13124,22.33868 -0.0955,32.16379 -7.91092,18.38944 -29.49101,27.26589 -49.52796,20.37217 l -7.31091,-2.51532 -7.53741,15.14228 c -15.859,31.85988 -21.984,72.71041 -15.76351,105.13424 1.53836,8.01857 3.25638,15.02246 3.8178,15.56421 0.56143,0.54173 4.92079,1.67376 9.68746,2.5156 21.53845,3.80388 30.38781,9.49624 37.01582,23.81043 2.88956,6.24042 3.22996,8.49968 2.71204,18 -0.63556,11.65821 -2.32182,16.07612 -8.94578,23.43736 -2.26348,2.51541 -4.11542,4.73936 -4.11542,4.9421 0,0.20275 5.76308,5.94468 12.80686,12.75985 12.25101,11.85342 38.44971,30.25912 43.19314,30.34502 1.13388,0.0205 3.07295,-2.57272 4.47759,-5.98824 z"
       style="display:inline;fill:none;fill-opacity:1;stroke-width:1.33333325"
       inkscape:connector-curvature="0" />
    <path
       id="path874"
       d="m 531.99999,576.63705 c 7.90454,-0.61161 16.17398,-2.50497 27.33333,-6.25821 8.8,-2.95972 16.15788,-5.51363 16.35084,-5.67536 0.19296,-0.16174 -0.53911,-2.42398 -1.6268,-5.0272 -3.98912,-9.5473 -18.39523,-12.86034 -32.72404,-7.5257 -4.03333,1.50162 -8.34048,2.8106 -9.57143,2.90886 -1.23096,0.0983 -2.13096,0.80006 -2,1.5596 0.13094,0.75952 -0.76956,1.3886 -2.00113,1.39794 -1.23157,0.009 -2.73157,0.55556 -3.33333,1.21378 -0.63244,0.69178 -0.2502,0.78353 0.90589,0.21745 1.63107,-0.79867 1.61583,-0.65363 -0.0827,0.78623 -1.14545,0.97105 -2.47874,2.8211 -2.9629,4.11125 -0.48415,1.29013 -1.64696,2.19013 -2.58403,2 -0.93708,-0.19015 -1.54773,0.42241 -1.35701,1.36123 0.1907,0.9388 -0.5593,3.45901 -1.66667,5.60045 -2.67548,5.17379 -2.55443,5.77837 0.98657,4.92748 1.65,-0.39649 8.1,-1.11551 14.33334,-1.5978 z"
       style="display:inline;fill:#10a01a;fill-opacity:1;stroke-width:1.33333325"
       inkscape:connector-curvature="0" />
    <path
       id="path872"
       d="m 589.09759,561.01222 c 2.43701,-1.47604 3.93701,-3.12498 3.33333,-3.66432 -0.98548,-0.88045 -17.61895,-5.34792 -19.9116,-5.34792 -0.51295,0 -0.0384,1.05 1.05443,2.33334 1.09288,1.28333 2.76501,4.29865 3.71584,6.7007 1.9311,4.87848 3.72285,4.87518 11.808,-0.0217 z"
       style="display:inline;fill:#9fa095;fill-opacity:1;stroke-width:1.33333325"
       inkscape:connector-curvature="0" />
    <path
       id="path870"
       d="m 448.94134,530.28561 c 0.88441,-0.0349 1.37706,-0.43708 1.09481,-0.8938 -0.28227,-0.4567 1.24412,-3.447 3.39197,-6.64508 2.14787,-3.19808 3.9052,-6.90128 3.9052,-8.22933 0,-2.73341 1.13442,-2.37297 -34.39504,-10.92863 l -24.39504,-5.87445 -1.75578,4.20221 c -0.96568,2.3112 -4.53744,6.65071 -7.93724,9.64332 l -6.18144,5.44112 28.99893,6.92798 c 15.94943,3.81038 29.59895,7.13762 30.33228,7.39386 0.73333,0.25624 2.23333,0.14198 3.33333,-0.25394 1.1,-0.39591 2.72362,-0.74838 3.60802,-0.78326 z"
       style="display:inline;fill:#1aa00e;fill-opacity:1;stroke-width:1.33333325"
       inkscape:connector-curvature="0" />
    <path
       id="path868"
       d="m 383.68951,508.44613 c 5.92596,-4.85586 9.01932,-10.17593 11.11321,-19.11281 2.99383,-12.77783 -8.0432,-26.92249 -24.64406,-31.58299 -5.99712,-1.68361 -23.03977,-2.64702 -24.31243,-1.37436 -0.91586,0.91587 7.76258,21.78635 13.15001,31.62402 6.66675,12.1737 15.73766,25.33333 17.46224,25.33333 0.69678,0 3.95074,-2.19923 7.23103,-4.88719 z"
       style="display:inline;fill:#11a00d;fill-opacity:1;stroke-width:1.33333325"
       inkscape:connector-curvature="0" />
    <path
       id="path866"
       d="m 455.61782,491.64173 c -6.39982,-13.85662 -13.8247,-18.1884 -43.94976,-25.64085 -10.45078,-2.58535 -20.05938,-4.93911 -21.35246,-5.23057 -1.65388,-0.37279 -0.76626,1.46048 2.9932,6.18218 5.82322,7.31364 8.68403,15.41662 7.51198,21.27692 -0.64488,3.22439 -0.24875,3.86692 2.88245,4.6753 1.99656,0.51544 15.03009,3.69784 28.96343,7.072 l 25.33333,6.13485 0.41967,-3.74737 c 0.23082,-2.06106 -1.03002,-6.88615 -2.80184,-10.72246 z"
       style="display:inline;fill:#14a00a;fill-opacity:1;stroke-width:1.33333325"
       inkscape:connector-curvature="0" />
    <path
       id="path864"
       d="m 676.36221,455.82888 c -0.95011,-0.95011 -1.06608,-2.30115 -0.31473,-3.66667 1.36466,-2.48021 6.90128,-23.02669 6.33048,-23.49252 -0.20788,-0.16965 -3.52798,-0.7104 -7.37798,-1.20166 -6.99897,-0.8931 -7,-0.89267 -7,2.86213 0,2.06544 0.93356,7.03611 2.07459,11.04592 1.14101,4.00981 2.226,8.29052 2.41108,9.51267 0.35339,2.33356 3.29472,6.44457 4.61092,6.44457 0.42355,0 0.0931,-0.677 -0.73436,-1.50444 z"
       style="display:inline;fill:#10a00e;fill-opacity:1;stroke-width:1.33333325"
       inkscape:connector-curvature="0" />
    <path
       id="path862"
       d="m 683.90485,408.66666 c -0.12293,-7.7 -0.35892,-14 -0.52427,-14 -0.16534,0 -1.44362,1.33966 -2.84061,2.97702 -2.51429,2.94691 -2.51301,2.95726 0.12667,1.02298 2.63332,-1.92962 2.63526,-1.91722 0.15513,0.99153 -1.38133,1.62007 -3.0462,2.61513 -3.69969,2.21125 -0.6535,-0.40388 -1.02331,0.0603 -0.82182,1.03144 0.20151,0.97118 -0.42822,1.60091 -1.3994,1.3994 -0.97117,-0.20149 -1.4233,0.18775 -1.00474,0.865 0.41856,0.67726 -0.42367,3.84212 -1.87162,7.03304 -4.17996,9.21158 -3.65056,9.98718 7.03972,10.31367 l 5.06424,0.15467 -0.22362,-14 z"
       style="display:inline;fill:#1aa00b;fill-opacity:1;stroke-width:1.33333325"
       inkscape:connector-curvature="0" />
    <path
       id="path860"
       d="m 466.89947,324.18596 c 8.45445,-3.624 14.40211,-9.18598 17.90283,-16.74193 1.69834,-3.66572 2.94017,-6.81266 2.75961,-6.99324 -0.42299,-0.42298 -55.56145,-13.78413 -56.88404,-13.78413 -0.54889,0 -1.75776,2.71367 -2.68637,6.03036 -1.76379,6.2996 -8.88732,15.07078 -14.65818,18.04853 -1.83333,0.946 -5.7163,2.42644 -8.62882,3.28988 l -5.2955,1.56988 19.96216,4.80815 c 28.60315,6.88942 38.43606,7.66989 47.52831,3.7725 z"
       style="display:inline;fill:#0da010;fill-opacity:1;stroke-width:1.33333325"
       inkscape:connector-curvature="0" />
    <path
       id="path858"
       d="m 481.33332,317.99999 c 1.72234,-1.83333 2.83151,-3.33333 2.46484,-3.33333 -0.36666,0 -2.07584,1.5 -3.79817,3.33333 -1.72233,1.83333 -2.83151,3.33333 -2.46484,3.33333 0.36667,0 2.07584,-1.5 3.79817,-3.33333 z"
       style="display:inline;fill:#9fa095;fill-opacity:1;stroke-width:1.33333325"
       inkscape:connector-curvature="0" />
    <path
       id="path856"
       d="m 396.97222,315.19443 c -0.44306,-0.44305 -1.59307,-0.49041 -2.55556,-0.1052 -1.06364,0.42563 -0.74771,0.74157 0.80556,0.80555 1.40554,0.0579 2.19305,-0.25724 1.75,-0.7003 z"
       style="display:inline;fill:#9fa095;fill-opacity:1;stroke-width:1.33333325"
       inkscape:connector-curvature="0" />
    <path
       id="path854"
       d="m 403.83146,308.59319 c 13.32461,-3.95699 21.35564,-16.2343 19.39896,-29.65586 -1.27494,-8.74524 -7.98116,-21.604 -11.26714,-21.604 -0.5262,0 -4.67562,2.97277 -9.22094,6.60617 -9.11143,7.28341 -21.91058,20.76407 -30.39852,32.01713 l -5.49868,7.28999 8.24409,3.61344 c 9.64361,4.22685 18.53879,4.76322 28.74223,1.73313 z"
       style="display:inline;fill:#9fea1a;fill-opacity:1;stroke-width:1.33333325"
       inkscape:connector-curvature="0" />
    <path
       id="path852"
       d="m 488.03998,287.51061 c -1.58458,-7.02578 -5.63104,-14.36003 -8.58446,-15.55939 -1.53388,-0.62289 -14.48886,-3.89964 -28.78886,-7.28165 -14.3,-3.38203 -27.06192,-6.46046 -28.35983,-6.84095 -1.96403,-0.57577 -1.79321,0.14315 1.01831,4.28616 1.85797,2.73788 3.73336,7.19936 4.1675,9.9144 0.43415,2.71503 1.26088,5.69936 1.83719,6.63183 1.38047,2.23365 57.74307,15.94353 58.83253,14.31069 0.45598,-0.6834 0.40091,-3.14088 -0.1224,-5.46109 z"
       style="display:inline;fill:#1adb00;fill-opacity:1;stroke-width:1.33333325"
       inkscape:connector-curvature="0" />
    <path
       id="path850"
       d="m 645.31109,284.77777 c -0.79444,-0.79444 -2.16444,-1.45892 -3.04444,-1.4766 -0.88,-0.0177 -1.5227,-1.03142 -1.42825,-2.25272 0.0945,-1.22131 -1.40553,-3.60683 -3.33333,-5.30118 l -3.50508,-3.08061 3.33333,3.99224 c 1.83333,2.19575 -0.51296,0.41141 -5.21399,-3.96517 -7.9116,-7.3656 -8.63706,-7.7563 -9.75406,-5.25299 -0.66372,1.48744 -3.56743,4.16343 -6.4527,5.94661 -2.88525,1.78319 -5.24592,3.5746 -5.24592,3.98092 0,0.75124 31.24788,8.77312 34.37777,8.82538 1.2285,0.0205 1.30371,-0.37884 0.26667,-1.41588 z"
       style="display:inline;fill:#20a018;fill-opacity:1;stroke-width:1.33333325"
       inkscape:connector-curvature="0" />
    <path
       id="path848"
       d="m 612.65721,273.34859 c 0.46712,-0.75581 -0.0681,-0.97933 -1.25464,-0.52401 -2.30989,0.88639 -2.73252,1.84208 -0.81461,1.84208 0.69005,0 1.62123,-0.59313 2.06925,-1.31807 z"
       style="display:inline;fill:#9fa095;fill-opacity:1;stroke-width:1.33333325"
       inkscape:connector-curvature="0" />
    <path
       id="path846"
       d="m 609.8446,271.48418 c 7.50565,-3.13607 12.73889,-13.47852 6.82205,-13.48243 -1.46666,-9.7e-4 -2.5402,-0.68117 -2.38562,-1.51156 0.15458,-0.8304 -0.73095,-1.4304 -1.96783,-1.33333 -1.23689,0.0971 -2.26336,-0.72275 -2.28105,-1.82177 -0.0177,-1.09904 -1.23216,-1.99904 -2.69883,-2 -1.46667,-9.8e-4 -2.5402,-0.68118 -2.38563,-1.51156 0.15459,-0.8304 -0.73094,-1.4304 -1.96782,-1.33334 -1.2369,0.0971 -2.26336,-0.72274 -2.28106,-1.82177 -0.0177,-1.09904 -1.23216,-1.99904 -2.69882,-2 -1.5081,-0.001 -2.5075,-0.76893 -2.3003,-1.76753 0.2015,-0.97118 -0.25226,-1.38344 -1.00837,-0.91615 -1.35316,0.83631 -12.47472,-2.67559 -23.80188,-7.51599 -3.17745,-1.35781 -6.06423,-2.46876 -6.41503,-2.46876 -1.92686,0 1.76122,13.8205 5.57004,20.87288 2.4376,4.51342 4.02479,8.61342 3.5271,9.11111 -0.4977,0.49769 -0.0799,0.70491 0.92844,0.46045 1.00833,-0.24444 2.13617,0.38908 2.5063,1.40783 0.46098,1.26876 0.0935,1.52216 -1.16666,0.80439 -1.51031,-0.86028 -1.53211,-0.71726 -0.12174,0.79893 0.94483,1.01573 2.74483,1.85376 4,1.86227 1.25519,0.008 2.11728,0.81008 1.91578,1.78125 -0.2015,0.97117 0.18652,1.42408 0.86225,1.00644 0.67575,-0.41763 3.2406,0.11427 5.69971,1.18204 5.71238,2.48035 15.96052,2.57341 21.64902,0.1966 z"
       style="display:inline;fill:#0da007;fill-opacity:1;stroke-width:1.33333325"
       inkscape:connector-curvature="0" />
    <path
       id="path844"
       d="m 633.33332,270.20665 c 0,-0.25302 -1.35,-1.60302 -3,-3 l -3,-2.53999 2.53999,3 c 2.38696,2.81925 3.46001,3.60699 3.46001,2.53999 z"
       style="display:inline;fill:#9fa095;fill-opacity:1;stroke-width:1.33333325"
       inkscape:connector-curvature="0" />
    <path
       id="path14"
       d="m 200.97222,671.19442 c -0.44306,-0.44305 -1.59306,-0.49041 -2.55556,-0.1052 -1.06364,0.42563 -0.7477,0.74157 0.80556,0.80555 1.40555,0.0579 2.19306,-0.25724 1.75,-0.7003 z"
       style="display:inline;fill:#9fa095;fill-opacity:1;stroke-width:1.33333325"
       inkscape:connector-curvature="0" />
  </g>
</svg>
