<?xml version="1.0" encoding="UTF-8" standalone="no"?>
<svg
   xmlns:dc="http://purl.org/dc/elements/1.1/"
   xmlns:cc="http://creativecommons.org/ns#"
   xmlns:rdf="http://www.w3.org/1999/02/22-rdf-syntax-ns#"
   xmlns:svg="http://www.w3.org/2000/svg"
   xmlns="http://www.w3.org/2000/svg"
   xmlns:sodipodi="http://sodipodi.sourceforge.net/DTD/sodipodi-0.dtd"
   xmlns:inkscape="http://www.inkscape.org/namespaces/inkscape"
   width="64"
   height="64"
   viewBox="0 0 16.933333 16.933332"
   version="1.1"
   id="svg7"
   sodipodi:docname="Sine.svg"
   inkscape:version="0.92.3 (2405546, 2018-03-11)">
  <metadata
     id="metadata13">
    <rdf:RDF>
      <cc:Work
         rdf:about="">
        <dc:format>image/svg+xml</dc:format>
        <dc:type
           rdf:resource="http://purl.org/dc/dcmitype/StillImage" />
        <dc:title></dc:title>
      </cc:Work>
    </rdf:RDF>
  </metadata>
  <defs
     id="defs11" />
  <sodipodi:namedview
     pagecolor="#ffffff"
     bordercolor="#666666"
     borderopacity="1"
     objecttolerance="10"
     gridtolerance="10"
     guidetolerance="10"
     inkscape:pageopacity="0"
     inkscape:pageshadow="2"
     inkscape:window-width="1920"
     inkscape:window-height="993"
     id="namedview9"
     showgrid="false"
     units="px"
     inkscape:zoom="8.5164963"
     inkscape:cx="45.110785"
     inkscape:cy="47.810704"
     inkscape:window-x="0"
     inkscape:window-y="30"
     inkscape:window-maximized="1"
     inkscape:current-layer="svg7" />
  <g
     id="g5"
     transform="matrix(0.64543604,0,0,-0.64543604,8.5308856,8.5847126)">
    <path
       id="Sine"
       d="M 6,8.4852814 C 6.1380003,8.2201439 6.2766161,7.9545097 6.4133752,7.6886669 6.5433651,7.4359827 6.6716776,7.1831099 6.7961408,6.9302363 6.9080129,6.7029444 7.0167751,6.4756518 7.1209929,6.248669 7.2084901,6.058103 7.292784,5.8677552 7.3635079,5.6785729 7.4175849,5.53392 7.4637283,5.3899484 7.5033967,5.2487104 7.5296832,5.155118 7.5531264,5.0627259 7.525547,4.9805241 7.5099017,4.9338928 7.4778371,4.8905407 7.4208005,4.8870379 7.3588211,4.8832316 7.2673542,4.9264804 7.1864248,4.9721898 7.0448558,5.0521487 6.935532,5.1396371 6.8262559,5.2306297 6.6656497,5.3643641 6.5051465,5.505668 6.350504,5.6479948 6.1516361,5.8310247 5.9624605,6.0157461 5.7752326,6.2016454 5.5548229,6.4204912 5.3371124,6.6409693 5.121538,6.8618264 4.8838922,7.1052958 4.6488422,7.3492258 4.4144699,7.5931925 4.1698582,7.8478177 3.9259846,8.1024828 3.6817503,8.3566206 3.439387,8.6088114 3.1966685,8.860483 2.9523549,9.1112159 2.7220124,9.3476107 2.4902521,9.5831712 2.2550307,9.8164086 2.045596,10.024077 1.8334176,10.229903 1.6168248,10.434034 1.4372027,10.603321 1.2545446,10.771442 1.0617005,10.930289 0.9168792,11.04958 0.76631333,11.163641 0.60931192,11.277467 c -0.10116698,0.07335 -0.20500609,0.146596 -0.33531273,0.17791 -0.0748956,0.018 -0.15853494,0.02214 -0.20994336,-0.003 -0.06542232,-0.03199 -0.07864641,-0.111412 -0.08274929,-0.186392 -0.0070341,-0.128547 0.01274156,-0.244043 0.03970975,-0.362999 C 0.05968409,10.732424 0.11313879,10.554751 0.17213582,10.3791 0.24681529,10.156762 0.3303752,9.9376625 0.41787077,9.7181755 0.51972595,9.4626667 0.62691462,9.2066333 0.73654527,8.9509547 0.85632619,8.6716038 0.97902222,8.3926763 1.1027159,8.1135204 1.2307969,7.8244628 1.3599476,7.5351602 1.4884784,7.2454324 1.6150453,6.9601316 1.741011,6.6744184 1.8649015,6.3877042 1.9807464,6.1196093 2.0947768,5.8506391 2.2035117,5.5807023 2.2993845,5.3426961 2.3911405,5.1039384 2.4777567,4.8620774 2.5486656,4.6640766 2.6161298,4.463996 2.6643684,4.2648363 2.6999023,4.1181299 2.725004,3.9719232 2.744559,3.8156505 2.7567975,3.7178476 2.7668635,3.6161021 2.7049865,3.5334907 2.667848,3.4839076 2.604793,3.4412172 2.5384416,3.4286555 2.4418592,3.4103703 2.3382925,3.4559222 2.24422,3.5022443 2.087162,3.5795809 1.9565684,3.6590644 1.8281615,3.746103 1.6482432,3.8680577 1.4726181,4.0048451 1.3023532,4.1432427 1.0900099,4.3158432 0.88600352,4.4909484 0.68451276,4.6687124 0.45245827,4.8734411 0.22374047,5.0816964 -0.00291672,5.2908788 -0.24841275,5.5174477 -0.49149139,5.7451043 -0.73391462,5.9730499 -0.98297973,6.2072409 -1.231353,6.441737 -1.4802137,6.6753569 -1.7233818,6.9036329 -1.9670153,7.1310723 -2.2127462,7.3567992 -2.4405927,7.5660977 -2.6702424,7.7739239 -2.9031311,7.9773481 -3.1064023,8.154902 -3.3121409,8.3291023 -3.5251263,8.5 -3.6971253,8.6380106 -3.8738503,8.7738674 -4.0559706,8.8926745 -4.1873763,8.9783975 -4.3215908,9.0552447 -4.4775482,9.129861 -4.5723162,9.175202 -4.6751135,9.219719 -4.777314,9.193927 -4.843794,9.17715 -4.9100206,9.130623 -4.9489343,9.0760256 c -0.062582,-0.087805 -0.054521,-0.1964843 -0.043674,-0.2994771 0.01759,-0.167017 0.042505,-0.3190805 0.077552,-0.4714401 0.048065,-0.2089479 0.1151854,-0.4184528 0.1858862,-0.6250597 0.086945,-0.254077 0.1793037,-0.5037714 0.2758179,-0.7525447 C -4.3433391,6.6439363 -4.2279271,6.3615652 -4.1105679,6.0800629 -3.9845313,5.7777466 -3.8562491,5.4764322 -3.7271664,5.1750991 -3.595573,4.867905 -3.4631478,4.5606913 -3.331527,4.2528575 -3.2039154,3.9544004 -3.07706,3.6553602 -2.9526018,3.354393 -2.8381902,3.077721 -2.7258044,2.7994205 -2.618429,2.5194682 -2.52569,2.2776762 -2.4366883,2.034652 -2.3546931,1.7845168 c 0.065267,-0.1991044 0.1260948,-0.4027143 0.1712873,-0.6037387 0.031891,-0.1418553 0.055995,-0.2824232 0.061631,-0.44808035 0.00333,-0.0978649 2.127e-4,-0.20448617 -0.059545,-0.27602137 -0.04374,-0.052361 -0.117826,-0.085924 -0.1859579,-0.0964453 -0.116502,-0.0179909 -0.2155943,0.0313906 -0.3110567,0.0813811 -0.1503084,0.0787116 -0.2916178,0.15893319 -0.428353,0.24828247 -0.1838106,0.12011057 -0.3593553,0.25671564 -0.531757,0.39564585 -0.2092167,0.1685977 -0.4138047,0.3406197 -0.615888,0.5158618 -0.2280674,0.197775 -0.4529446,0.3996516 -0.676351,0.6027144 -0.237933,0.2162666 -0.4741977,0.4338788 -0.7099621,0.6517002 -0.2385012,0.2203499 -0.4764903,0.440914 -0.7149109,0.6602589 -0.2293476,0.2109979 -0.4590943,0.4208677 -0.6908542,0.6279043 -0.2111818,0.1886539 -0.4240352,0.3749554 -0.6389332,0.5562503 -0.183582,0.1548758 -0.3686561,0.3060977 -0.5617154,0.4489267 -0.1513354,0.1119609 -0.3075775,0.2187646 -0.4630621,0.3113942 -0.1071303,0.063823 -0.2139011,0.1209164 -0.3479319,0.1506642 -0.077309,0.017158 -0.1636864,0.025219 -0.2221252,-0.02506 -0.049593,-0.042669 -0.079065,-0.1273522 -0.091988,-0.2068063 -0.022704,-0.1395919 0.00567,-0.2630424 0.035915,-0.3852891 0.04627,-0.1870453 0.096902,-0.3712723 0.1551334,-0.5513892 0.076834,-0.2376576 0.1668978,-0.4681594 0.2596669,-0.6966199 0.1111695,-0.273775 0.2262237,-0.5446186 0.3442679,-0.8135617 0.1319478,-0.3006202 0.2676314,-0.5988658 0.4047136,-0.8962433 0.1448051,-0.3141313 0.2911707,-0.6272938 0.438021,-0.9404468 0.1474158,-0.314359 0.29532,-0.62870839 0.4426002,-0.9439246 0.1405534,-0.30081924 0.2805386,-0.60242793 0.4183359,-0.90651478 0.1244311,-0.27459072 0.2470781,-0.55120222 0.3665931,-0.83014852 0.1009364,-0.2355843 0.1996388,-0.4728339 0.2901472,-0.7187519 0.0698,-0.1896511 0.1347261,-0.3844577 0.1930416,-0.5780442 0.039165,-0.1300144 0.075349,-0.2594784 0.080381,-0.415245 0.00286,-0.088524 -0.00434,-0.185543 -0.041932,-0.2387041 -0.037591,-0.053161 -0.1055705,-0.062464 -0.1674969,-0.057473 -0.1089657,0.00878 -0.1991887,0.061823 -0.2897459,0.1191581 -0.1348362,0.08537 -0.2704132,0.1802614 -0.4022792,0.2821377 -0.1709888,0.1321015 -0.3357378,0.2759471 -0.4991934,0.4231159 -0.1935416,0.1742569 -0.3852698,0.3531728 -0.5753843,0.5348731 -0.2105364,0.2012183 -0.4190937,0.4058513 -0.6268086,0.6116899 -0.2176559,0.21569 -0.4343868,0.4327037 -0.6506908,0.64964022 -0.215474,0.2161042 -0.4305243,0.43213186 -0.645666,0.64679223 -0.2036673,0.20321171 -0.4074163,0.40519809 -0.6118503,0.60330821 -0.182891,0.17723486 -0.36633,0.35136733 -0.550832,0.52143539 -0.153963,0.14191878 -0.308666,0.28100725 -0.465597,0.40539115 -0.118935,0.094268 -0.239149,0.180091 -0.360365,0.2611468 -0.07922,0.052976 -0.158874,0.103915 -0.240387,0.096121 -0.0464,-0.00444 -0.0934,-0.0279 -0.111663,-0.081198 -0.02152,-0.062805 -0.0031,-0.1670378 0.01936,-0.2616937 0.03903,-0.1641063 0.09048,-0.29942795 0.146112,-0.43608046 0.08074,-0.19833186 0.170281,-0.39946702 0.26225,-0.5953855 0.117324,-0.24993389 0.238602,-0.49137804 0.361972,-0.73140659 0.144414,-0.28097332 0.291696,-0.56000685 0.440319,-0.83713275 0.163105,-0.3041296 0.327825,-0.6059616 0.49343,-0.9071039 0.172158,-0.3130555 0.345272,-0.6253656 0.5187374,-0.9376903 0.1714746,-0.3087409 0.3432915,-0.6174961 0.5150983,-0.9272792 0.1613176,-0.2908698 0.3226263,-0.5826458 0.4828567,-0.8763568 0.1419751,-0.260248 0.2831036,-0.5220152 0.4238218,-0.7874844 0.1159566,-0.2187556 0.2316345,-0.4400251 0.3411776,-0.6651659 0.081488,-0.1674804 0.1595814,-0.3371032 0.2393184,-0.5156178 0.050642,-0.1133764 0.1019466,-0.2303395 0.1236244,-0.3464502 0.012677,-0.067903 0.015222,-0.1355147 1.852e-4,-0.1662771 -0.020544,-0.042027 -0.073904,-0.015277 -0.1245121,0.015726 -0.085665,0.052478 -0.163445,0.1171383 -0.2439156,0.190291 -0.1140357,0.1036655 -0.2334751,0.2243859 -0.3517442,0.3485341 -0.1485817,0.1559676 -0.2953162,0.3173452 -0.4423101,0.4824093 -0.170193,0.191115 -0.3407337,0.387172 -0.5108101,0.585122 -0.1850111,0.2153325 -0.3694728,0.432905 -0.5535717,0.6514772 -0.189882,0.225439 -0.379379,0.4519415 -0.568242,0.6781449 -0.185259,0.2218877 -0.369907,0.4434877 -0.553907,0.6638322 -0.171331,0.2051742 -0.342099,0.4092598 -0.511141,0.609348 -0.1483,0.1755369 -0.295272,0.3479972 -0.441976,0.5175626 -0.119294,0.1378849 -0.238412,0.2738556 -0.349793,0.3932602 -0.08122,0.087067 -0.158319,0.1653258 -0.239159,0.2428938 -0.04985,0.047833 -0.101122,0.095404 -0.115583,0.074254 -0.009,-0.013151 -0.0038,-0.052872 0.01476,-0.1039307 0.02846,-0.078493 0.08829,-0.1837806 0.145352,-0.2824394 0.09391,-0.1623596 0.180355,-0.3067677 0.269658,-0.4520339 0.123768,-0.2013302 0.253031,-0.4043085 0.381463,-0.6039311 0.159038,-0.2471915 0.316802,-0.4892374 0.475199,-0.7302531 0.181476,-0.2761327 0.363782,-0.550913 0.546218,-0.8244316 0.196756,-0.2949879 0.393664,-0.5885083 0.591039,-0.8815443 0.201997,-0.2998959 0.404484,-0.5992845 0.6075222,-0.8985673 0.1976237,-0.2913018 0.3957693,-0.5825033 0.5949796,-0.8745302 0.1839233,-0.2696173 0.3687542,-0.5399381 0.5542112,-0.8105654 0.1610307,-0.2349833 0.3225334,-0.4701976 0.4874629,-0.7098513 0.1322468,-0.1921635 0.2666968,-0.3871812 0.3983113,-0.5774479 0.093933,-0.1357924 0.1864211,-0.2691653 0.2914807,-0.4200383 0.062927,-0.09037 0.1303644,-0.187015 0.1726009,-0.245587 0.029016,-0.04024 0.046139,-0.06251 0.047919,-0.06293 0.00297,-7.03e-4 -0.03666,0.05924 -0.076023,0.118682 -0.062896,0.09498 -0.1251234,0.188682 -0.1927209,0.290044 -0.091766,0.1376025 -0.1934296,0.2893184 -0.2960422,0.4424833 -0.1253428,0.1870934 -0.2521021,0.3763489 -0.3805422,0.5682979 -0.1456715,0.2177007 -0.293505,0.4388661 -0.4417419,0.6611518 -0.1585321,0.2377236 -0.3175256,0.4767285 -0.4763577,0.7163993 -0.1612967,0.2433898 -0.3224271,0.4874663 -0.4824697,0.7313234 -0.1545604,0.2355037 -0.3081064,0.4708028 -0.4596202,0.7052756 -0.138675,0.2146036 -0.275649,0.4285151 -0.40884,0.6397085 -0.114413,0.1814192 -0.226036,0.3608326 -0.332587,0.5381011 -0.08418,0.1400426 -0.165186,0.2787465 -0.234632,0.4057814 -0.04843,0.088598 -0.09124,0.1715207 -0.119858,0.2496525 -0.01669,0.045573 -0.02855,0.089516 0.006,0.077839 0.02714,-0.00918 0.08294,-0.052697 0.136597,-0.1007311 0.09335,-0.083573 0.180232,-0.1808096 0.265401,-0.2767799 0.132175,-0.1489368 0.260237,-0.2948228 0.385933,-0.4411601 0.167378,-0.194863 0.33056,-0.3905261 0.4921453,-0.5853209 0.1948438,-0.2348883 0.3873653,-0.468514 0.5787227,-0.7017473 0.2149183,-0.2619502 0.4283683,-0.5234055 0.6413546,-0.7843456 0.2259047,-0.2767671 0.4512878,-0.5529545 0.6769565,-0.828755 0.227411,-0.2779297 0.4551119,-0.5554664 0.6838276,-0.8325719 0.2191418,-0.265506 0.4392151,-0.5306161 0.6617377,-0.795473 0.2018557,-0.2402583 0.4057268,-0.480308 0.6119396,-0.719231 0.1751683,-0.202954 0.3520264,-0.405096 0.5371045,-0.607627 0.1439195,-0.157491 0.2928096,-0.315219 0.4411849,-0.46625 0.1009543,-0.102762 0.2016703,-0.202423 0.3292122,-0.30222 0.072911,-0.05705 0.1545879,-0.114143 0.2070387,-0.123812 0.048268,-0.0089 0.071785,0.02237 0.081037,0.05996 0.016311,0.06626 -0.011705,0.152191 -0.042224,0.239798 -0.046055,0.132205 -0.097809,0.26824 -0.156321,0.406624 -0.076523,0.180982 -0.1646043,0.365981 -0.2553008,0.552014 -0.1080285,0.221583 -0.2197678,0.444632 -0.3339876,0.668648 -0.1270753,0.2492282 -0.2572209,0.4996539 -0.388248,0.7506767 -0.1378574,0.264094 -0.2766835,0.5288495 -0.4152099,0.7940289 -0.1385264,0.2651794 -0.2767532,0.5307826 -0.4133752,0.7966145 -0.1298596,0.2526739 -0.2582694,0.5055544 -0.3827656,0.7584306 -0.1119017,0.2272943 -0.2206415,0.454585 -0.3248521,0.6815673 -0.087491,0.1905656 -0.1717897,0.3809137 -0.242515,0.5700961 -0.054078,0.144653 -0.1002206,0.2886245 -0.1398888,0.4298625 -0.026286,0.093592 -0.04973,0.1859845 -0.02215,0.2681863 0.015645,0.046631 0.04771,0.089983 0.1047465,0.093486 0.061979,0.00381 0.1534463,-0.039442 0.2343757,-0.085152 0.141569,-0.079959 0.2508928,-0.1674473 0.3601689,-0.2584399 0.1606062,-0.1337344 0.3211094,-0.2750383 0.4757519,-0.4173651 0.1988679,-0.1830299 0.3880435,-0.3677513 0.5752714,-0.5536506 0.2204097,-0.2188458 0.4381202,-0.4393239 0.6536946,-0.660181 0.2376458,-0.2434694 0.4726958,-0.4873994 0.7070681,-0.7313661 0.2446117,-0.2546252 0.4884853,-0.5092903 0.7327196,-0.7634281 0.2423633,-0.2521908 0.4850818,-0.5038624 0.7293954,-0.7545953 0.2303425,-0.2363948 0.4621028,-0.4719553 0.6973242,-0.7051927 0.2094347,-0.2076681 0.4216131,-0.4134941 0.6382059,-0.6176251 0.1796221,-0.169287 0.3622802,-0.337408 0.5551243,-0.496255 0.1448213,-0.119291 0.29538717,-0.233352 0.45238858,-0.347178 0.10116698,-0.07335 0.20500609,-0.146596 0.33531273,-0.17791 0.0748956,-0.018 0.15853494,-0.02214 0.20994336,0.003 0.06542232,0.03199 0.07864641,0.111412 0.08274929,0.186392 0.0070341,0.128547 -0.01274156,0.244043 -0.03970975,0.362999 -0.0386678,0.170562 -0.0921225,0.348235 -0.15111953,0.523886 -0.0746795,0.222342 -0.15823938,0.4414412 -0.24573495,0.6609282 -0.10185518,0.2555088 -0.20904385,0.5115422 -0.3186745,0.7672208 -0.11978092,0.2793509 -0.24247695,0.5582784 -0.36617063,0.8374343 -0.128081,0.2890576 -0.2572317,0.5783602 -0.3857625,0.868088 -0.1265669,0.2853008 -0.2525326,0.571014 -0.3764231,0.8577282 -0.1158449,0.2680949 -0.2298753,0.5370651 -0.3386102,0.8070019 -0.095873,0.2380062 -0.1876288,0.4767639 -0.274245,0.7186249 -0.070909,0.1980008 -0.1383731,0.3980814 -0.1866117,0.5972411 -0.035534,0.1467064 -0.060636,0.2929131 -0.080191,0.4491858 -0.012238,0.097803 -0.022304,0.1995484 0.039573,0.2821598 0.037138,0.049583 0.1001935,0.092274 0.1665449,0.1048352 0.096582,0.018285 0.2001491,-0.027267 0.2942216,-0.073589 0.157058,-0.077337 0.2876516,-0.1568201 0.4160585,-0.2438587 0.1799183,-0.1219547 0.3555434,-0.2587421 0.5258083,-0.3971397 0.2123433,-0.1726005 0.41634968,-0.3477057 0.61784044,-0.5254697 0.23205449,-0.2047287 0.46077229,-0.412984 0.68742948,-0.6221664 0.24549603,-0.2265689 0.48857467,-0.4542255 0.7309979,-0.6821711 C 0.98297973,-6.2072409 1.231353,-6.441737 1.4802137,-6.6753569 1.7233818,-6.9036329 1.9670153,-7.1310723 2.2127462,-7.3567992 2.4405927,-7.5660977 2.6702424,-7.7739239 2.9031311,-7.9773481 3.1064023,-8.154902 3.3121409,-8.3291023 3.5251263,-8.5 c 0.171999,-0.1380106 0.348724,-0.2738674 0.5308443,-0.3926745 0.1314057,-0.085723 0.2656202,-0.1625702 0.4215776,-0.2371865 0.094768,-0.045341 0.1975653,-0.089858 0.2997658,-0.064066 0.06648,0.016777 0.1327066,0.063304 0.1716203,0.1179014 0.062582,0.087805 0.054521,0.1964843 0.043674,0.2994771 -0.01759,0.167017 -0.042505,0.3190805 -0.077552,0.4714401 -0.048065,0.2089479 -0.1151854,0.4184528 -0.1858862,0.6250597 -0.086945,0.254077 -0.1793037,0.5037714 -0.2758179,0.7525447 C 4.3433391,-6.6439363 4.2279271,-6.3615652 4.1105679,-6.0800629 3.9845313,-5.7777466 3.8562491,-5.4764322 3.7271664,-5.1750991 3.595573,-4.867905 3.4631478,-4.5606913 3.331527,-4.2528575 3.2039154,-3.9544004 3.07706,-3.6553602 2.9526018,-3.354393 2.8381902,-3.077721 2.7258044,-2.7994205 2.618429,-2.5194682 2.52569,-2.2776762 2.4366883,-2.034652 2.3546931,-1.7845168 c -0.065267,0.1991044 -0.1260948,0.4027143 -0.1712873,0.6037387 -0.031891,0.1418553 -0.055995,0.2824232 -0.061631,0.44808035 -0.00333,0.0978649 -2.127e-4,0.20448617 0.059545,0.27602137 0.04374,0.052361 0.117826,0.085924 0.1859579,0.0964453 0.116502,0.0179909 0.2155943,-0.0313906 0.3110567,-0.0813811 0.1503084,-0.0787116 0.2916178,-0.15893319 0.428353,-0.24828247 0.1838106,-0.12011057 0.3593553,-0.25671564 0.531757,-0.39564585 0.2092167,-0.1685977 0.4138047,-0.3406197 0.615888,-0.5158618 0.2280674,-0.197775 0.4529446,-0.3996516 0.676351,-0.6027144 0.237933,-0.2162666 0.4741977,-0.4338788 0.7099621,-0.6517002 0.2385012,-0.2203499 0.4764903,-0.440914 0.7149109,-0.6602589 0.2293476,-0.2109979 0.4590943,-0.4208677 0.6908542,-0.6279043 0.2111818,-0.1886539 0.4240352,-0.3749554 0.6389332,-0.5562503 0.183582,-0.1548758 0.3686561,-0.3060977 0.5617154,-0.4489267 0.1513354,-0.1119609 0.3075775,-0.2187646 0.4630621,-0.3113942 0.1071303,-0.063823 0.2139011,-0.1209164 0.3479319,-0.1506642 0.077309,-0.017158 0.1636864,-0.025219 0.2221252,0.02506 0.049593,0.042669 0.079065,0.1273522 0.091988,0.2068063 0.022704,0.1395919 -0.00567,0.2630424 -0.035915,0.3852891 -0.04627,0.1870453 -0.096902,0.3712723 -0.1551334,0.5513892 -0.076834,0.2376576 -0.1668978,0.4681594 -0.2596669,0.6966199 -0.1111695,0.273775 -0.2262237,0.5446186 -0.3442679,0.8135617 -0.1319478,0.3006202 -0.2676314,0.5988658 -0.4047136,0.8962433 -0.1448051,0.3141313 -0.2911707,0.6272938 -0.438021,0.9404468 -0.1474158,0.314359 -0.29532,0.62870839 -0.4426002,0.9439246 C 7.1512947,0.14894465 7.0113095,0.45055334 6.8735122,0.75464019 6.7490811,1.0292309 6.6264341,1.3058424 6.5069191,1.5847887 6.4059827,1.820373 6.3072803,2.0576226 6.2167719,2.3035406 c -0.0698,0.1896511 -0.1347261,0.3844577 -0.1930416,0.5780442 -0.039165,0.1300144 -0.075349,0.2594784 -0.080381,0.415245 -0.00286,0.088524 0.00434,0.185543 0.041932,0.2387041 0.037591,0.053161 0.1055705,0.062464 0.1674969,0.057473 C 6.261744,3.5842245 6.351967,3.5311841 6.4425242,3.4738489 6.5773604,3.388479 6.7129374,3.2935875 6.8448034,3.1917112 7.0157922,3.0596097 7.1805412,2.9157641 7.3439968,2.7685953 7.5375384,2.5943384 7.7292666,2.4154225 7.9193811,2.2337222 8.1299175,2.0325039 8.3384748,1.8278709 8.5461897,1.6220323 8.7638456,1.4063423 8.9805765,1.1893286 9.1968805,0.97239209 9.4123545,0.75628789 9.6274048,0.54026023 9.8425465,0.32559986 10.046214,0.12238815 10.249963,-0.07959823 10.454397,-0.27770835 c 0.182891,-0.17723486 0.36633,-0.35136733 0.550832,-0.52143539 0.153963,-0.14191878 0.308666,-0.28100726 0.465597,-0.40539116 0.118935,-0.094268 0.239149,-0.180091 0.360365,-0.2611468 0.07922,-0.052976 0.158874,-0.103915 0.240387,-0.096121 0.0464,0.00444 0.0934,0.0279 0.111663,0.081198 0.02152,0.062805 0.0031,0.1670378 -0.01936,0.2616937 -0.03903,0.1641063 -0.09048,0.29942796 -0.146112,0.43608047 -0.08074,0.19833186 -0.170281,0.39946702 -0.26225,0.5953855 C 11.638195,0.06248876 11.516917,0.30393291 11.393547,0.54396146 11.249133,0.82493478 11.101851,1.1039683 10.953228,1.3810942 10.790123,1.6852238 10.625403,1.9870558 10.459798,2.2881981 10.28764,2.6012536 10.114526,2.9135637 9.9410604,3.2258884 9.7695858,3.5346293 9.5977689,3.8433845 9.4259621,4.1531676 9.2646445,4.4440374 9.1033358,4.7358134 8.9431054,5.0295244 8.8011303,5.2897724 8.6600018,5.5515396 8.5192836,5.8170088 8.403327,6.0357644 8.2876491,6.2570339 8.178106,6.4821747 8.0966179,6.6496551 8.0185246,6.8192779 7.9387876,6.9977925 7.8881458,7.1111689 7.836841,7.228132 7.8151632,7.3442427 7.8024862,7.4121457 7.7999412,7.4797574 7.814978,7.5105198 7.835522,7.5525468 7.888882,7.5257968 7.9394901,7.4947938 8.0251551,7.4423158 8.1029351,7.3776555 8.1834057,7.3045028 8.2974414,7.2008374 8.4168808,7.080117 8.5351499,6.9559688 8.6837316,6.8000012 8.8304661,6.6386236 8.97746,6.4735595 9.147653,6.2824445 9.3181937,6.0863875 9.4882701,5.8884375 9.6732812,5.673105 9.8577429,5.4555325 10.041842,5.2369603 10.231724,5.0115213 10.421221,4.7850188 10.610084,4.5588154 10.795343,4.3369277 10.979991,4.1153277 11.163991,3.8949832 11.335322,3.689809 11.50609,3.4857234 11.675132,3.2856352 11.823432,3.1100983 11.970404,2.937638 12.117108,2.7680726 12.236402,2.6301877 12.35552,2.494217 12.466901,2.3748124 c 0.08122,-0.087067 0.158319,-0.1653258 0.239159,-0.2428938 0.04985,-0.047833 0.101122,-0.095404 0.115583,-0.074254 0.009,0.013151 0.0038,0.052872 -0.01476,0.1039307 -0.02846,0.078493 -0.08829,0.1837806 -0.145352,0.2824394 -0.09391,0.1623596 -0.180355,0.3067677 -0.269658,0.4520339 C 12.268103,3.0973991 12.13884,3.3003774 12.010408,3.5 11.85137,3.7471915 11.693606,3.9892374 11.535209,4.2302531 11.353733,4.5063858 11.171427,4.7811661 10.988991,5.0546847 10.792235,5.3496726 10.595327,5.643193 10.397952,5.936229 10.195955,6.2361249 9.9934678,6.5355135 9.7904296,6.8347963 9.5928059,7.1260981 9.3946603,7.4172996 9.19545,7.7093265 9.0115267,7.9789438 8.8266958,8.2492646 8.6412388,8.5198919 8.4802081,8.7548752 8.3187054,8.9900895 8.1537759,9.2297432 8.0215291,9.4219067 7.8870791,9.6169244 7.7554646,9.8071911 7.6615319,9.9429835 7.5690435,10.076356 7.4639839,10.227229 c -0.062927,0.09037 -0.1303644,0.187015 -0.1726009,0.245587 -0.029016,0.04024 -0.046139,0.06251 -0.047919,0.06293 -0.00297,7.03e-4 0.03666,-0.05924 0.076023,-0.118682 C 7.382383,10.322084 7.4446104,10.228382 7.5122079,10.12702 7.603975,9.9894149 7.7056383,9.837699 7.8082509,9.6845341 7.9335937,9.4974407 8.060353,9.3081852 8.1887931,9.1162362 8.3344646,8.8985355 8.4822981,8.6773701 8.630535,8.4550844 8.7890671,8.2173608 8.9480606,7.9783559 9.1068927,7.7386851 9.2681894,7.4952953 9.4293198,7.2512188 9.5893624,7.0073617 9.7439228,6.771858 9.8974688,6.5365589 10.048983,6.3020861 10.187658,6.0874825 10.324632,5.873571 10.457823,5.6623776 10.572236,5.4809584 10.683859,5.301545 10.79041,5.1242765 10.874585,4.9842339 10.955596,4.84553 11.025042,4.7184951 c 0.04843,-0.088598 0.09124,-0.1715207 0.119858,-0.2496525 0.01669,-0.045573 0.02855,-0.089516 -0.006,-0.077839 -0.02714,0.00918 -0.08294,0.052697 -0.136597,0.1007311 -0.09334,0.083573 -0.180223,0.18081 -0.265392,0.2767803 C 10.604736,4.9174518 10.476674,5.0633378 10.350978,5.2096751 10.1836,5.4045381 10.020418,5.6002012 9.8588323,5.794996 9.6639885,6.0298843 9.471467,6.26351 9.2801096,6.4967433 9.0651913,6.7586935 8.8517413,7.0201488 8.638755,7.2810889 8.4128503,7.557856 8.1874672,7.8340434 7.9617985,8.1098439 7.7343875,8.3877736 7.5066866,8.6653103 7.2779709,8.9424158 7.0588291,9.2079218 6.8387558,9.4730319 6.6162332,9.7378888 6.4143775,9.9781471 6.2105064,10.218197 6.0042936,10.45712 c -0.1751683,0.202954 -0.3520264,0.405096 -0.5371045,0.607627 -0.1439195,0.157491 -0.2928096,0.315219 -0.4411849,0.46625 -0.1009543,0.102762 -0.2016703,0.202423 -0.3292122,0.30222 -0.072911,0.05705 -0.1545879,0.114143 -0.2070387,0.123812 -0.048268,0.0089 -0.071785,-0.02237 -0.081037,-0.05996 -0.016311,-0.06626 0.011705,-0.152191 0.042224,-0.239798 0.046055,-0.132205 0.097811,-0.26824 0.156321,-0.406624 C 4.6837828,11.069668 4.771859,10.884669 4.8625615,10.698636 4.9705972,10.477053 5.0823589,10.254002 5.1965491,10.029988 5.3235914,9.7807622 5.4536397,9.5303443 5.5847971,9.2793111 5.7227846,9.0152054 5.8619997,8.7504188 6,8.4852814"
       style="fill:none;fill-opacity:1;fill-rule:evenodd;stroke:#191919;stroke-width:0.69999999;stroke-linecap:square;stroke-miterlimit:4;stroke-dasharray:none"
       inkscape:connector-curvature="0" />
    <title
       id="title3">b'Sine'</title>
  </g>
</svg>
