<?xml version="1.0" encoding="UTF-8" standalone="no"?>
<svg
   xmlns:dc="http://purl.org/dc/elements/1.1/"
   xmlns:cc="http://creativecommons.org/ns#"
   xmlns:rdf="http://www.w3.org/1999/02/22-rdf-syntax-ns#"
   xmlns:svg="http://www.w3.org/2000/svg"
   xmlns="http://www.w3.org/2000/svg"
   xmlns:sodipodi="http://sodipodi.sourceforge.net/DTD/sodipodi-0.dtd"
   xmlns:inkscape="http://www.inkscape.org/namespaces/inkscape"
   width="64"
   height="64"
   viewBox="0 0 47.999984 48.000026"
   version="1.1"
   id="svg3"
   sodipodi:docname="SineWall.svg"
   inkscape:version="0.92.5 (2060ec1f9f, 2020-04-08)">
  <metadata
     id="metadata9">
    <rdf:RDF>
      <cc:Work
         rdf:about="">
        <dc:format>image/svg+xml</dc:format>
        <dc:type
           rdf:resource="http://purl.org/dc/dcmitype/StillImage" />
        <dc:title />
      </cc:Work>
    </rdf:RDF>
  </metadata>
  <defs
     id="defs7" />
  <sodipodi:namedview
     pagecolor="#ffffff"
     bordercolor="#666666"
     borderopacity="1"
     objecttolerance="10"
     gridtolerance="10"
     guidetolerance="10"
     inkscape:pageopacity="0"
     inkscape:pageshadow="2"
     inkscape:window-width="1920"
     inkscape:window-height="998"
     id="namedview5"
     showgrid="false"
     units="px"
     inkscape:pagecheckerboard="true"
     inkscape:zoom="8.3066536"
     inkscape:cx="4.8621167"
     inkscape:cy="34.046778"
     inkscape:window-x="0"
     inkscape:window-y="30"
     inkscape:window-maximized="1"
     inkscape:current-layer="svg3" />
  <path
     id="Selection"
     d="m 8.959326,1.0055602 c 0,0 -0.3277069,1.6280337 -0.3277069,1.6280337 0,0 -0.5800664,2.984726 -0.5800664,2.984726 C 7.9181105,6.2849085 7.8119012,7.1369121 7.1928005,7.5439205 6.7861185,7.8107367 5.9936323,7.9210813 5.5097896,8.007909 c 0,0 -2.8140949,0.5227795 -2.8140949,0.5227795 C 2.165556,8.631985 1.6218002,8.679021 1.1524814,8.9648306 c 0,0 2.7233184,0.6331241 2.7233184,0.6331241 0,0 2.813187,0.6059893 2.813187,0.6059893 0,0 0.7271258,0.298473 0.7271258,0.298473 -0.5891453,0.794117 -1.2636197,0.768793 -2.1786548,0.927074 -1.0076273,0.174561 -3.2434717,0.525493 -4.0849764,0.88185 0,0 1.7247675,0.397964 1.7247675,0.397964 0,0 3.9905684,0.876424 3.9905684,0.876424 0,0 0.6390718,0.353645 0.6390718,0.353645 -0.1670293,0.148331 -0.3494925,0.337364 -0.5482941,0.43776 0,0 -1.7211372,0.376257 -1.7211372,0.376257 -1.1964434,0.238777 -2.9992806,0.499262 -4.0849764,0.904461 0,0 2.4509865,0.542678 2.4509865,0.542678 0,0 2.8140938,0.569811 2.8140938,0.569811 0,0 0.9985509,0.425098 0.9985509,0.425098 -0.4865663,0.765174 -1.07208,0.720856 -1.906323,0.886373 -1.287221,0.255058 -3.1989901,0.490218 -4.3573082,0.922552 0.4829358,0.341886 1.6530542,0.446804 2.2694312,0.549913 0.7253111,0.122102 2.8694699,0.491122 3.4486284,0.728092 0,0 0.6363481,0.350026 0.6363481,0.350026 -0.7135087,0.709099 -1.2309395,0.614131 -2.1786536,0.795928 0,0 -4.2665306,0.922552 -4.2665306,0.922552 0,0 1.815544,0.452231 1.815544,0.452231 0,0 3.9025144,0.787787 3.9025144,0.787787 0,0 0.7271258,0.388014 0.7271258,0.388014 -0.7307561,0.727188 -1.3026528,0.678347 -2.2694313,0.852004 -1.0030879,0.180892 -3.2625336,0.518257 -4.0849764,0.866474 0.4330082,0.306614 1.0294141,0.350027 1.5432133,0.452232 0,0 2.9048726,0.578856 2.9048726,0.578856 0.7852232,0.156472 1.3117316,0.102201 1.8155453,0.777838 0,0 -0.7280337,0.397058 -0.7280337,0.397058 0,0 -2.2676166,0.471226 -2.2676166,0.471226 0,0 -3.3587574,0.669301 -3.3587574,0.669301 0,0 1.7247675,0.416958 1.7247675,0.416958 0,0 2.6325408,0.505594 2.6325408,0.505594 0,0 1.5314121,0.393441 1.5314121,0.393441 0,0 0.5564638,0.402487 0.5564638,0.402487 0,0 -0.7271258,0.452231 -0.7271258,0.452231 0,0 -2.813187,0.565288 -2.813187,0.565288 0,0 -2.9048714,0.610513 -2.9048714,0.610513 0.4874741,0.296664 1.8318847,0.469415 2.4509853,0.580665 0,0 2.7233173,0.519161 2.7233173,0.519161 0,0 1.1801051,0.437759 1.1801051,0.437759 -0.3449543,0.753418 -1.0067207,0.72538 -1.7247688,0.868285 0,0 -4.6296389,0.940641 -4.6296389,0.940641 0.4865662,0.329224 1.6566845,0.474842 2.2694312,0.596945 0,0 3.3587586,0.691914 3.3587586,0.691914 0,0 0.8169944,0.339173 0.8169944,0.339173 -0.5010901,0.679251 -1.1274526,0.62227 -1.9063218,0.777837 0,0 -3.0864268,0.59785 -3.0864268,0.59785 0,0 -1.4524356,0.342791 -1.4524356,0.342791 0.4166675,0.29576 0.9604233,0.336461 1.4524356,0.434143 0,0 2.814095,0.538154 2.814095,0.538154 0.7298494,0.126626 1.4306501,0.166422 2.0134389,0.662972 0.5083531,0.433237 0.6663059,1.433573 0.7779613,2.073028 0,0 0.8396903,4.250973 0.8396903,4.250973 0,0 0.4856571,-1.808925 0.4856571,-1.808925 0,0 0.8760029,-4.341419 0.8760029,-4.341419 0,0 0.272331,-0.271339 0.272331,-0.271339 0,0 0.381262,0.386205 0.381262,0.386205 0,0 0.472043,1.87495 0.472043,1.87495 0,0 0.600038,3.16562 0.600038,3.16562 0,0 0.271424,0.994908 0.271424,0.994908 0,0 0.508353,-1.989817 0.508353,-1.989817 0,0 0.786129,-3.707392 0.786129,-3.707392 0,0 0.339507,-0.634028 0.339507,-0.634028 0,0 0.181554,0 0.181554,0 0,0 0.325891,0.546295 0.325891,0.546295 0,0 0.550111,2.438431 0.550111,2.438431 0,0 0.667212,3.346511 0.667212,3.346511 0.271426,-0.410627 0.386713,-1.383828 0.490199,-1.899371 0,0 0.508353,-2.532495 0.508353,-2.532495 0,0 0.272332,-1.265343 0.272332,-1.265343 0,0 0.453886,-0.724474 0.453886,-0.724474 0,0 0.396696,0.554436 0.396696,0.554436 0,0 0.458425,2.158951 0.458425,2.158951 0,0 0.778868,3.708296 0.778868,3.708296 0.302289,-0.444995 0.475673,-1.849626 0.58279,-2.442048 0,0 0.637258,-3.075172 0.637258,-3.075172 0,0 0.413941,-0.814017 0.413941,-0.814017 0.728035,0.523684 0.707156,1.16947 0.871463,1.989818 0,0 0.853308,4.250972 0.853308,4.250972 0,0 0.181554,0 0.181554,0 0,0 0.597313,-2.984725 0.597313,-2.984725 0,0 0.555556,-2.622037 0.555556,-2.622037 0,0 0.299567,-0.724474 0.299567,-0.724474 0.684459,0.501072 0.703521,1.210171 0.83969,1.989817 0,0 0.612745,3.256065 0.612745,3.256065 0,0 0.272331,1.175801 0.272331,1.175801 0.364926,-0.511925 0.452073,-1.618988 0.580974,-2.261157 0,0 0.638166,-3.165618 0.638166,-3.165618 0,0 0.414849,-0.994908 0.414849,-0.994908 0.708974,0.518257 0.699895,1.187558 0.839692,1.989817 0,0 0.483843,2.532495 0.483843,2.532495 0.107116,0.593328 0.172476,1.288858 0.492014,1.808924 0.290485,-0.487504 0.472039,-1.830631 0.582789,-2.442048 0,0 0.645429,-3.161096 0.645429,-3.161096 0,0 0.314991,-0.637646 0.314991,-0.637646 0.743466,0.476652 0.677205,0.924361 0.835158,1.718478 0,0 0.580974,2.984726 0.580974,2.984726 0.08898,0.444091 0.12708,1.256299 0.490198,1.537586 0,0 0.580059,-3.075171 0.580059,-3.075171 0,0 0.570992,-2.619324 0.570992,-2.619324 0,0 0.392161,-0.636741 0.392161,-0.636741 0.708969,0.776933 0.67629,1.36212 0.855122,2.351602 0,0 0.488379,2.532495 0.488379,2.532495 0.08621,0.442282 0.157953,1.067265 0.381264,1.447139 0.210608,-0.36088 0.260529,-0.936117 0.344948,-1.356693 0,0 0.562829,-2.984726 0.562829,-2.984726 0.157038,-0.794118 0.217856,-1.390159 0.907765,-1.899371 0,0 0.4321,0.994908 0.4321,0.994908 0,0 1.111112,5.245882 1.111112,5.245882 0.307742,-0.431428 0.351306,-1.02566 0.453894,-1.537586 0,0 0.617278,-3.075172 0.617278,-3.075172 0.06623,-0.330128 0.182468,-1.174897 0.354039,-1.413674 0.439361,-0.609608 1.259071,-0.681965 1.933555,-0.836628 0,0 4.53886,-0.915316 4.53886,-0.915316 -0.474761,-0.32018 -1.417036,-0.398868 -1.997107,-0.507404 0,0 -3.720956,-0.770601 -3.720956,-0.770601 -0.261433,-0.106722 -0.487465,-0.292142 -0.727127,-0.440474 0,0 0.639071,-0.39525 0.639071,-0.39525 0,0 1.721141,-0.366307 1.721141,-0.366307 0,0 4.084978,-0.866476 4.084978,-0.866476 -0.447537,-0.30209 -1.191003,-0.381683 -1.724765,-0.488409 0,0 -2.450989,-0.506499 -2.450989,-0.506499 -0.350403,-0.07236 -1.450618,-0.257772 -1.701165,-0.385301 0,0 -0.477495,-0.338269 -0.477495,-0.338269 0,0 0.556471,-0.402486 0.556471,-0.402486 0,0 2.620742,-0.539963 2.620742,-0.539963 0,0 3.267977,-0.685583 3.267977,-0.685583 -0.425742,-0.279479 -1.375277,-0.374447 -1.90633,-0.490218 0,0 -3.990565,-0.853813 -3.990565,-0.853813 0,0 -0.548295,-0.284002 -0.548295,-0.284002 0,0 0,-0.180892 0,-0.180892 0,0 0.636351,-0.338269 0.636351,-0.338269 0,0 5.718063,-1.199317 5.718063,-1.199317 -0.473858,-0.33646 -1.490557,-0.448613 -2.087883,-0.549913 0,0 -3.448627,-0.690104 -3.448627,-0.690104 0,0 -0.727115,-0.388015 -0.727115,-0.388015 0.472028,-0.731711 1.01488,-0.672921 1.815541,-0.832106 0,0 4.448084,-0.886373 4.448084,-0.886373 -0.432101,-0.330129 -1.523248,-0.416053 -2.087883,-0.524589 -0.874183,-0.168229 -2.99383,-0.54539 -3.718236,-0.830296 0,0 -0.548295,-0.273147 -0.548295,-0.273147 0,0 0,-0.180893 0,-0.180893 0,0 0.465695,-0.312039 0.465695,-0.312039 0,0 2.3484,-0.520971 2.3484,-0.520971 0,0 3.540319,-0.704577 3.540319,-0.704577 -0.414858,-0.331033 -1.28178,-0.390727 -1.815554,-0.511021 0,0 -3.899788,-0.846577 -3.899788,-0.846577 0,0 -0.548283,-0.270434 -0.548283,-0.270434 0,0 0,-0.180893 0,-0.180893 0,0 0.549198,-0.362688 0.549198,-0.362688 0,0 1.266343,-0.289428 1.266343,-0.289428 0,0 2.63253,-0.541774 2.63253,-0.541774 0,0 1.724777,-0.434141 1.724777,-0.434141 0,0 -2.269436,-0.560767 -2.269436,-0.560767 0,0 -3.177201,-0.620462 -3.177201,-0.620462 0,0 -0.817,-0.356358 -0.817,-0.356358 0.515616,-0.711811 1.098409,-0.6892 1.90633,-0.850194 0,0 2.814095,-0.541774 2.814095,-0.541774 0.531041,-0.09949 1.165573,-0.140191 1.633989,-0.416957 0,0 -4.266531,-0.869188 -4.266531,-0.869188 0,0 -1.448811,-0.363593 -1.448811,-0.363593 0,0 -0.639072,-0.304804 -0.639072,-0.304804 0.534677,-0.737137 1.082069,-0.686488 1.90633,-0.850196 0,0 2.904872,-0.560766 2.904872,-0.560766 0.463864,-0.09225 1.146512,-0.166421 1.543212,-0.397964 0,0 -2.904872,-0.669302 -2.904872,-0.669302 0,0 -2.631638,-0.537251 -2.631638,-0.537251 0,0 -0.727115,-0.331032 -0.727115,-0.331032 0.324972,-0.709099 1.039396,-0.716335 1.724765,-0.866476 0,0 4.53886,-0.9424494 4.53886,-0.9424494 -0.392161,-0.1998861 -1.092051,-0.2903319 -1.543212,-0.3798746 0,0 -2.904872,-0.5607663 -2.904872,-0.5607663 -0.398518,-0.079595 -1.298119,-0.2604855 -1.610388,-0.4766512 -0.60095,-0.416053 -0.742564,-1.26263 -0.876916,-1.9292186 0,0 -0.508344,-2.6229408 -0.508344,-2.6229408 0,0 -0.363118,-1.8993715 -0.363118,-1.8993715 -0.350402,0.4097234 -0.436639,1.3539804 -0.544658,1.8993715 0,0 -0.738024,3.7046781 -0.738024,3.7046781 0,0 -0.351306,0.636741 -0.351306,0.636741 -0.734388,-0.4703205 -0.693533,-1.0139018 -0.853304,-1.8089241 0,0 -0.871461,-4.3414191 -0.871461,-4.3414191 -0.374906,0.2595784 -0.442998,1.263533 -0.521974,1.7184777 0,0 -0.696254,3.4369571 -0.696254,3.4369571 0,0 -0.415761,1.0853542 -0.415761,1.0853542 -0.763442,-0.4893139 -0.705345,-1.1613289 -0.855122,-1.9898168 0,0 -0.542853,-2.8038333 -0.542853,-2.8038333 -0.08802,-0.4386642 -0.200613,-1.1676613 -0.417579,-1.5375863 -0.273232,0.4648932 -0.472028,2.0115247 -0.58278,2.6229413 0,0 -0.545574,2.7133867 -0.545574,2.7133867 0,0 -0.414858,0.9949084 -0.414858,0.9949084 -0.76343,-0.4893139 -0.705333,-1.1613289 -0.855122,-1.9898168 0,0 -0.869639,-4.2509722 -0.869639,-4.2509722 -0.407593,0.2812867 -0.460243,1.3232278 -0.563729,1.8089241 0,0 -0.578251,2.7133866 -0.578251,2.7133866 -0.06173,0.2803832 -0.170659,0.9415452 -0.277776,1.1640439 0,0 -0.395792,0.5544344 -0.395792,0.5544344 0,0 -0.38308,-0.5544344 -0.38308,-0.5544344 0,0 -0.472038,-2.2493981 -0.472038,-2.2493981 0,0 -0.778872,-3.5274039 -0.778872,-3.5274039 0,0 -0.39488,1.4471403 -0.39488,1.4471403 0,0 -0.567359,2.7133865 -0.567359,2.7133865 0,0 -0.423019,1.7854096 -0.423019,1.7854096 0,0 -0.339508,0.4757469 -0.339508,0.4757469 0,0 -0.377635,-0.6367421 -0.377635,-0.6367421 0,0 -0.330429,-1.5339674 -0.330429,-1.5339674 -0.243283,-1.2110753 -0.527415,-3.1719499 -0.925926,-4.2509738 -0.311368,0.5074038 -0.467503,1.8025939 -0.58279,2.4420486 -0.144336,0.7977361 -0.413945,2.4782264 -0.686277,3.162001 0,0 -0.364926,0.7271868 -0.364926,0.7271868 C 20.07046,6.5788585 20.111312,5.9837223 19.92068,4.8947501 19.728229,3.7940194 19.460438,2.1126236 19.126377,1.0960076 18.875833,1.522915 18.667951,2.8986015 18.574453,3.4476104 c 0,0 -0.730757,3.3456065 -0.730757,3.3456065 0,0 -0.351308,0.6340271 -0.351308,0.6340271 0,0 -0.181555,0 -0.181555,0 0,0 -0.350399,-0.6340271 -0.350399,-0.6340271 0,0 -0.412132,-1.8984668 -0.412132,-1.8984668 0,0 -0.780685,-3.8891899 -0.780685,-3.8891899 0,0 -0.453886,1.8089261 -0.453886,1.8089261 0,0 -0.790668,3.8882836 -0.790668,3.8882836 0,0 -0.389436,0.7244741 -0.389436,0.7244741 0,0 -0.392157,-0.3862043 -0.392157,-0.3862043 0,0 -0.462965,-1.7845053 -0.462965,-1.7845053 0,0 -0.869644,-4.1605268 -0.869644,-4.1605268 -0.321351,0.4495184 -0.464782,1.6741603 -0.56736,2.2611563 -0.13344,0.7633658 -0.492918,2.8020247 -0.738925,3.436053 0,0 -0.327705,0.6340271 -0.327705,0.6340271 0,0 -0.181554,0 -0.181554,0 0,0 -0.339507,-0.6340271 -0.339507,-0.6340271 0,0 -0.7679768,-3.7978378 -0.7679768,-3.7978378 C 9.3778141,2.4355169 9.2416433,1.4794986 8.959326,1.0055602 Z"
     style="fill:#1616f1;fill-opacity:1;stroke:#fd0000;stroke-width:0.55046552;stroke-miterlimit:4;stroke-dasharray:none;stroke-opacity:1"
     inkscape:connector-curvature="0" />
</svg>
