<?xml version="1.0"?>
<!DOCTYPE svg PUBLIC "-//W3C//DTD SVG 1.1//EN" "http://www.w3.org/Graphics/SVG/1.1/DTD/svg11.dtd">
<svg width="26.164153651888405mm" height="24.429949791677515mm" viewBox="0 0 26.164153651888405 24.429949791677515" xmlns="http://www.w3.org/2000/svg" version="1.1">
<g id="Sine" transform="translate(13.082224,12.214921) scale(1,-1)">
<path id="Sine"  d="M 6.000000000000002 8.485281374238571 C 6.13800030206199 8.220143899903041 6.276616123568145 7.954509746834755 6.413375227520088 7.6886669449778395 C 6.543365120369548 7.435982653186022 6.671677551871957 7.183109856536673 6.796140779747237 6.930236317234613 C 6.908012858202999 6.70294437799185 7.01677513865694 6.475651838754871 7.120992871440822 6.2486690107659655 C 7.208490071073455 6.058102959450019 7.292783984612239 5.867755212309997 7.363507878182165 5.678572917663502 C 7.417584926593365 5.533919963905718 7.463728305198884 5.389948388309431 7.503396655547467 5.248710406554162 C 7.529683191681893 5.1551179763588495 7.553126444672401 5.062725908692018 7.5255469516013545 4.980524107639721 C 7.509901695634199 4.933892785769111 7.47783706488619 4.890540742643299 7.420800478052529 4.887037946600159 C 7.358821130272664 4.883231600073976 7.267354176927693 4.926480393161598 7.186424806767949 4.972189760165633 C 7.044855830160275 5.05214872061933 6.935532039095858 5.139637079520753 6.826255901546902 5.230629703329272 C 6.665649726629817 5.364364090207727 6.505146488059269 5.505668038814259 6.350503978243019 5.647994781741717 C 6.15163614713488 5.8310247306755585 5.962460528299536 6.015746131318805 5.7752326440603365 6.20164543670097 C 5.5548228794146395 6.420491162131128 5.337112409958998 6.640969303293082 5.1215380145099525 6.861826425382953 C 4.883892186881799 7.1052958478869135 4.6488422256052075 7.349225827391999 4.414469885613448 7.59319248962705 C 4.1698581804637715 7.8478176781245015 3.9259845984142485 8.102482824591057 3.6817502611473785 8.356620607564679 C 3.439387003186675 8.608811440932612 3.196668496327149 8.86048296011981 2.952354922271477 9.111215932167728 C 2.722012436609854 9.347610722109618 2.490252095724549 9.583171237503501 2.255030747306835 9.816408592415147 C 2.0455960314537895 10.0240768142021 1.8334175537226938 10.229903318192124 1.616824782863727 10.434033875158155 C 1.4372026717371527 10.603320972978963 1.2545446229670936 10.771441680335355 1.0617004651406274 10.93028915765591 C 0.9168792009230118 11.049579743083147 0.7663133337518139 11.163640556832295 0.6093119229042627 11.277467278486215 C 0.5081449362381991 11.350813794098013 0.404305830783507 11.424063111723536 0.27399919040922854 11.455377494264193 C 0.19910355188060297 11.473375891496872 0.11546424946391183 11.47752090273558 0.06405583469597288 11.452381183901036 C -0.0013664895523925972 11.42038838963709 -0.01459058336167213 11.34096869527133 -0.018693462224071235 11.26598921011462 C -0.02572756781090992 11.13744200384134 -0.005951904691726724 11.02194579818522 0.021016285960901836 10.902990317284493 C 0.059684091645197695 10.732428358575447 0.11313879163014536 10.554754583170393 0.17213582045071255 10.379103983748806 C 0.246815290961667 10.156762384146713 0.3303752011556077 9.937662507080788 0.417870766580846 9.71817552303266 C 0.5197259476377206 9.462666727916046 0.6269146153495049 9.206633336562653 0.7365452674022641 8.950954692746759 C 0.8563261920980098 8.671603764810257 0.9790222218002116 8.392676314741829 1.102715851008394 8.113520419226795 C 1.2307969221516846 7.824462798859353 1.3599476180935137 7.535160239602771 1.4884784340720825 7.245432386033974 C 1.6150452813754885 6.960131614207396 1.7410110476878646 6.674418445881792 1.8649014639153 6.3877042353493145 C 1.980746422329608 6.1196092784726535 2.0947768253984833 5.850639073366468 2.2035117355873455 5.580702275383169 C 2.2993844923683793 5.342696055169684 2.3911404581508933 5.1039383919940615 2.4777567203109485 4.862077405462501 C 2.5486655801561957 4.664076633225198 2.6161298288389743 4.463996024667004 2.664368445677941 4.264836267714081 C 2.6999022974728275 4.118129878708452 2.725003958944678 3.971923161145798 2.744559014419272 3.8156504975133894 C 2.7567974980111156 3.717847633583718 2.766863458356835 3.6161020879777954 2.7049864787574607 3.5334907399469007 C 2.667848023551097 3.483907552980649 2.604792991443214 3.441217230043593 2.5384415588916496 3.4286554520610375 C 2.4418592490866216 3.410370307548592 2.338292451994493 3.4559222006803116 2.2442200036581283 3.502244273992426 C 2.087162044503321 3.5795809482990926 1.9565683716319264 3.6590644016327456 1.828161505350009 3.746102963520655 C 1.6482431868903327 3.868057747945033 1.4726181032819115 4.004845053684385 1.3023531730699123 4.143242716294631 C 1.0900099032206796 4.315843217064573 0.8860035183646721 4.490948377503329 0.6845127636756738 4.668712377025447 C 0.45245826969455405 4.873441050660305 0.22374047073856348 5.081696369530388 -0.0029167150364832056 5.290878831796547 C -0.24841274763516555 5.5174477111372315 -0.49149139177059675 5.745104259803817 -0.7339146192446935 5.97304994832104 C -0.9829797299105867 6.207240866113444 -1.231353017872731 6.441736984437098 -1.4802136763745493 6.675356872002942 C -1.7233818175387916 6.903632864441379 -1.9670152877162588 7.131072254006444 -2.2127461583274375 7.356799191104805 C -2.440592682287609 7.566097672220016 -2.6702424180013304 7.7739238954078775 -2.903131090865748 7.977348135665471 C -3.1064022570728618 8.154901994525883 -3.3121409243318443 8.329102315788809 -3.525126265847083 8.500000000000002 C -3.69712530459928 8.638010612374462 -3.873850317592714 8.773867384644799 -4.055970627199129 8.892674530137398 C -4.187376313423494 8.978397723314218 -4.321590838881873 9.055244729683547 -4.477548220952883 9.129860964620182 C -4.572316642371854 9.175201959084632 -4.675113519614759 9.219719250839738 -4.7773140462526404 9.1939273523368 C -4.8437935023278955 9.177150223685606 -4.910020627575796 9.130623521546902 -4.9489343491839595 9.076026031425146 C -5.011516371117407 8.988220980067782 -5.003455338664912 8.879541741005937 -4.992608538881957 8.7765488540079 C -4.975018984262529 8.609531941414803 -4.950103693380684 8.457468436832213 -4.915056225380097 8.305108821482634 C -4.866991672914367 8.09616086765312 -4.799870789653779 7.886655996523251 -4.72917004447236 7.680049071214817 C -4.6422250821479105 7.4259720980398125 -4.5498662583329175 7.176277717722106 -4.453352066572661 6.927504383379856 C -4.343339027319048 6.643936650002059 -4.227926961620904 6.361565622101036 -4.110567805994743 6.080063314451497 C -3.9845312337890864 5.7777470125419335 -3.8562489952699543 5.4764326447374785 -3.7271663228376997 5.175099535652768 C -3.5955729405150505 4.8679053764129385 -3.463147683937584 4.56069173975181 -3.331526899720609 4.252857911188606 C -3.2039153100400783 3.95440076056385 -3.077059930361008 3.655360624938977 -2.952601665355976 3.3543934230792787 C -2.8381901413924036 3.0777214300507083 -2.725804344194651 2.799420933515954 -2.6184288706984997 2.51946859247042 C -2.52568976493328 2.2776765991957806 -2.4366881609560025 2.034652395752671 -2.354693027745731 1.7845171747539772 C -2.289425973432091 1.585412808244684 -2.2285981853082664 1.3818029352030081 -2.18340571888844 1.1807785086403177 C -2.151515106151241 1.0389231808369277 -2.1274102435310964 0.8983552995349585 -2.1217746991462976 0.7326981516158777 C -2.118445400439613 0.6348332266571107 -2.121562017699424 0.5282119793363508 -2.181319261749727 0.4566767844085975 C -2.225059221057491 0.40431582692235624 -2.299145335940351 0.37075280414775746 -2.3672772140954788 0.36023151485268684 C -2.48377921148609 0.34224065284813004 -2.582871475597794 0.39162205911330694 -2.678333863187408 0.4416125719986783 C -2.828642260708138 0.5203241365505904 -2.969951668486039 0.6005457646526156 -3.106686903502786 0.6898950380635948 C -3.2904975410565154 0.8100056072861 -3.466042225005045 0.9466106765172793 -3.6384438819030667 1.085540915432338 C -3.8476605649998463 1.254138620875767 -4.052248560466506 1.4261605679756477 -4.254331866344712 1.601402716601957 C -4.482399295488267 1.799177719050119 -4.7072765124514575 2.0010542781064125 -4.930682941612316 2.204117132546356 C -5.16861591181549 2.4203837291537535 -5.404880605882055 2.6379959095879784 -5.640645016431242 2.855817339604463 C -5.879146165305491 3.0761672269659615 -6.117135348733381 3.296731250016645 -6.355555876877405 3.5160761716205666 C -6.584903472131737 3.7270740697156524 -6.814650207679936 3.93694388511606 -7.0464100530097085 4.1439805499377265 C -7.257591947630236 4.332634434611933 -7.4704453347729505 4.518935943846941 -7.685343308048985 4.700230835580194 C -7.868925321537338 4.8551065691767725 -8.05399944567282 5.006328542651083 -8.247058656089413 5.149157490448092 C -8.398394146291567 5.2611184208967146 -8.554636230653326 5.367922090757296 -8.710120811559717 5.460551673072784 C -8.81725114687757 5.524374324527756 -8.924021869602088 5.581468055679944 -9.05805271781418 5.611215932167729 C -9.135361248013922 5.628374404553094 -9.221739065342 5.636435068205541 -9.280177947622732 5.586155508956523 C -9.329770841566393 5.543486848091449 -9.359242949144052 5.458803301563913 -9.372165794893755 5.379349181603798 C -9.394869772164778 5.2397572860876656 -9.366491949394634 5.116306806727974 -9.336251116962652 4.99406013768864 C -9.289980691671321 4.807014844553244 -9.23934877913833 4.622787788736292 -9.181117659013694 4.4426709387598615 C -9.104283812371234 4.205013301414204 -9.014219864322577 3.974511468067141 -8.921450842054991 3.746051035987896 C -8.810281280708367 3.47227596109218 -8.695227130947545 3.2014324152680853 -8.577182939112006 2.932489257295363 C -8.445235139818207 2.6318691481834717 -8.309551465361405 2.33362345775754 -8.172469332434822 2.0362459858516138 C -8.027664179572767 1.7221146737853499 -7.8812985549995425 1.408952164489322 -7.734448329256603 1.0957992443855173 C -7.587032498108581 0.7814401907308008 -7.439128325641516 0.4670908002776437 -7.291848108390528 0.15187459011680818 C -7.15129466546705 -0.14894465384108443 -7.01130948316778 -0.4505533446943133 -6.8735122059954055 -0.7546401930559676 C -6.749081122204641 -1.029230931600285 -6.626434080031822 -1.3058423867088194 -6.506919124500778 -1.5847887131968486 C -6.405982704640867 -1.8203729829952997 -6.307280294468065 -2.057622636251019 -6.216771949917428 -2.3035405818785915 C -6.146972196708431 -2.4931917350367976 -6.082045820046176 -2.687998308555689 -6.023730274127093 -2.8815847758011452 C -5.984565031266318 -3.0115991807892804 -5.948381660389833 -3.1410632463638155 -5.943349424199105 -3.29682982169615 C -5.940489546839386 -3.3853537473049227 -5.947690797064799 -3.4823728018761537 -5.985281374238571 -3.535533905932735 C -6.022871951412344 -3.588695009989317 -6.090851855534475 -3.597998163531249 -6.1527783014465065 -3.593006980251997 C -6.261743988811643 -3.584224501154753 -6.351967036207071 -3.5311840790195648 -6.442524234557103 -3.473848874481212 C -6.577360433006257 -3.3884789518454226 -6.712937446425062 -3.293587467017942 -6.844803424832751 -3.191711211301029 C -7.0157921584532525 -3.059609723401118 -7.180541180425051 -2.915764084300321 -7.3439968094302825 -2.768595327984019 C -7.5375383701372325 -2.594338430512191 -7.729266590975281 -2.4154225151767434 -7.919381118967309 -2.2337221942452263 C -8.129917453700712 -2.0325039076006166 -8.338474794886245 -1.8278708938455401 -8.546189667602377 -1.6220322547687869 C -8.763845606465063 -1.4063423445730163 -8.980576507460492 -1.1893286470584534 -9.19688045011837 -0.9723920949872515 C -9.412354477304113 -0.7562878855854575 -9.627404816176519 -0.5402602307790519 -9.842546543955603 -0.325599856891326 C -10.046213929698169 -0.12238815257180345 -10.249963216054294 0.07959822637488012 -10.454396519594773 0.27770835230566615 C -10.63728827095299 0.45494321211462135 -10.820727481760947 0.6290756771421454 -11.005228974058156 0.7991437407325419 C -11.159192188808593 0.9410625158640709 -11.313895134506922 1.0801510020767595 -11.47082560353223 1.2045349097483191 C -11.589760648338098 1.298803446151278 -11.709975155156933 1.384625853424091 -11.831191406775766 1.4656817425238735 C -11.910414373285324 1.518657213236721 -11.990065235174988 1.5695966652894964 -12.071578447020133 1.561803198525145 C -12.117974840509397 1.5573672458438637 -12.16497459012557 1.533903254788026 -12.183240694818746 1.4806047994518252 C -12.204764962854098 1.4177993870337584 -12.186390818144826 1.3135670072726113 -12.163881259044429 1.2189110867544632 C -12.124856130881836 1.0548048324696513 -12.073400928155507 0.9194831427263115 -12.017769081363712 0.7828306303560831 C -11.937027297462754 0.5844987708258147 -11.84748765061131 0.3833636091948044 -11.755519112762261 0.187445129571662 C -11.638194529635143 -0.06248875527939095 -11.516917122297919 -0.30393291088467456 -11.393547240548362 -0.5439614578056541 C -11.249132561530985 -0.8249347802002389 -11.101850639272623 -1.103968344379368 -10.953227906495593 -1.3810942441833445 C -10.790123102351345 -1.685223799374862 -10.625403454745612 -1.9870558044651314 -10.459797596785437 -2.2881981319308347 C -10.287640412949154 -2.601253573742965 -10.114525515347442 -2.913563691658297 -9.94106041097485 -3.22588843519714 C -9.769585773320923 -3.5346293339639923 -9.597768919846786 -3.8433845246296934 -9.425962062603261 -4.153167567011643 C -9.264644543432423 -4.4440374000324345 -9.103335837151569 -4.735813409035542 -8.943105408216 -5.029524417208549 C -8.8011303138188 -5.2897724137212885 -8.660001793219056 -5.551539610839036 -8.51928359881267 -5.817008807990482 C -8.403327024450308 -6.035764448156737 -8.287649074706483 -6.25703386483519 -8.178106044391182 -6.4821746914592815 C -8.09661787703617 -6.6496551172388365 -8.018524621228227 -6.819277884817826 -7.938787624656335 -6.9977924817072505 C -7.88814584949585 -7.111168912563759 -7.836841047020301 -7.228131995186162 -7.8151632109700415 -7.344242748189785 C -7.80248573146305 -7.4121458215561535 -7.799940858170908 -7.479757392908162 -7.814978015180418 -7.51051983047499 C -7.8355216799542555 -7.552547269877221 -7.88888193047552 -7.525796374932812 -7.939490142102343 -7.494793929839961 C -8.025155277010656 -7.442315714230402 -8.102935065227872 -7.377655640667183 -8.183405718888434 -7.30450286559826 C -8.297441386478308 -7.200837427807427 -8.416880842558232 -7.080116970502563 -8.535149926666385 -6.955968793361962 C -8.683731617813395 -6.800001185669148 -8.830466116957012 -6.638623625565353 -8.977460041496958 -6.473559532826027 C -9.147652994278841 -6.282444522940467 -9.318193720864123 -6.0863875162644 -9.488270085536303 -5.888437495913277 C -9.673281249902942 -5.673105025571783 -9.857742918269064 -5.455532484686128 -10.041841741369563 -5.236960345664835 C -10.231724427813424 -5.01152128940054 -10.421221111709361 -4.785018839277177 -10.610083559050253 -4.558815368490567 C -10.795342642710583 -4.336927702050058 -10.979991460522852 -4.115327715146542 -11.163990833504414 -3.894983192207396 C -11.335322143702413 -3.68980903754384 -11.506090357112129 -3.4857234244972406 -11.675132344397241 -3.2856352299982037 C -11.823432499424861 -3.110098307249208 -11.970404062200132 -2.9376380030474647 -12.117107748380263 -2.768072627619274 C -12.236402295833063 -2.6301877165303122 -12.355519712558731 -2.4942170482231543 -12.46690091797814 -2.3748123637248093 C -12.548117303704133 -2.2877454579825782 -12.625220375905773 -2.2094866215325952 -12.706059855120433 -2.131918610121149 C -12.755910443413967 -2.084085409818706 -12.807181880099705 -2.0365149104591413 -12.821642697070049 -2.0576648867632406 C -12.830634483983053 -2.0708160165044984 -12.825393826910515 -2.110537204780627 -12.80688132255894 -2.1615955898027592 C -12.778421587690243 -2.240088919119931 -12.7185955935436 -2.3453762165369225 -12.661528541702864 -2.444034999178954 C -12.567615106464295 -2.6063946251891834 -12.481173504947595 -2.750802748511061 -12.391871072707094 -2.8960689344918986 C -12.268103319000629 -3.097399055937342 -12.1388404019799 -3.300377368030918 -12.01040764008566 -3.4999999999999942 C -11.851370148642463 -3.7471914654439367 -11.693605593418706 -3.9892374265898978 -11.535208694929564 -4.230253083458628 C -11.353732668775466 -4.506385785971454 -11.171426604436501 -4.781166071310024 -10.988990577757487 -5.054684693554349 C -10.792234608487075 -5.349672600344699 -10.595327473904073 -5.6431930074274534 -10.397951582103286 -5.936229019967264 C -10.195955160323873 -6.236124946696208 -9.993467777414347 -6.535513534267051 -9.790429581917953 -6.834796339726363 C -9.592805858060546 -7.126098093845881 -9.394660307231067 -7.417299632465111 -9.195450032464226 -7.709326458276292 C -9.011526733263953 -7.978943762509417 -8.826695849613454 -8.249264552215255 -8.641238773807974 -8.51989192660568 C -8.480208123095817 -8.75487515390687 -8.318705368141725 -8.990089524202993 -8.153775870210755 -9.229743224262998 C -8.021529110164835 -9.421906698738724 -7.887079144962421 -9.616924415360172 -7.755464615217504 -9.80719107289898 C -7.6615319380649005 -9.942983500605376 -7.569043521279436 -10.076355923893454 -7.463983928841243 -10.227229393631996 C -7.401056757655092 -10.317597540293816 -7.333619541322104 -10.414244376537969 -7.291382972576252 -10.472815716088625 C -7.262366718481613 -10.513053853833469 -7.245244168602129 -10.535321870217278 -7.24346439190304 -10.535743405943606 C -7.24049907722075 -10.536445733420434 -7.280124426178287 -10.476503476084803 -7.319487800925813 -10.417061001105395 C -7.3823839081991185 -10.322081840734235 -7.444611176726063 -10.22837866018023 -7.5122087081991715 -10.127017161835127 C -7.6039750452350106 -9.989414897123808 -7.705638316194629 -9.837699009689425 -7.8082508881143955 -9.684534057045484 C -7.933593721855022 -9.497440713267377 -8.060353007367283 -9.30818521958164 -8.188793109825916 -9.116236181315905 C -8.334464554711815 -8.898535531648221 -8.482298060818533 -8.677370133308454 -8.630535021757442 -8.45508438571451 C -8.789067072201373 -8.217360844113761 -8.948060563527976 -7.978355932437603 -9.106892680235042 -7.738685142195298 C -9.268189433681252 -7.495295321777119 -9.429319765472608 -7.251218797258696 -9.589362439252014 -7.007361708814432 C -9.74392282019862 -6.771857992234274 -9.897468782727778 -6.536558935568015 -10.048983288187742 -6.302086067930925 C -10.187658407546014 -6.087482503690396 -10.324631774706216 -5.873571038248175 -10.457822677858946 -5.662377646306279 C -10.572236233064737 -5.480958448477621 -10.683858654586055 -5.301544955525106 -10.790409671260502 -5.124276528761216 C -10.87458532701426 -4.984233885030477 -10.95559589248834 -4.845529988323076 -11.025041955468389 -4.7184950585078935 C -11.073475908038937 -4.629896749238165 -11.116284744144341 -4.546974369203654 -11.144899717025522 -4.468842573185951 C -11.161590363182725 -4.4232695731215035 -11.173451975609186 -4.37932642473603 -11.13890928327045 -4.391004024719776 C -11.11176587197541 -4.4001802028876345 -11.055969153456655 -4.443700573886317 -11.002312259021675 -4.491735091064 C -10.90895769547032 -4.575307601805494 -10.822080493055452 -4.672544672753597 -10.736910984287537 -4.768515038572723 C -10.604736116987265 -4.917451794818049 -10.476674067237449 -5.063337812369691 -10.350977730401217 -5.209675129479066 C -10.183600347321397 -5.404538065036222 -10.020417755409676 -5.60020122761504 -9.858832288692689 -5.79499599257967 C -9.663988548424502 -6.029884323575724 -9.47146704912414 -6.263509993058031 -9.280109603952994 -6.496743336213653 C -9.065191288717667 -6.758693516008732 -8.851741322518595 -7.0201488116148125 -8.638754993197352 -7.281088913245524 C -8.412850287897289 -7.5578559571572725 -8.187467167567533 -7.834043415088706 -7.96179845416458 -8.109843899781321 C -7.7343875457472135 -8.38777360399293 -7.506686617595696 -8.665310336923444 -7.2779708918093835 -8.942415835048513 C -7.058829130736859 -9.207921788577663 -6.8387557520561195 -9.47303185437092 -6.616233194295716 -9.737888810142467 C -6.414377490192921 -9.97814709151344 -6.210506417399661 -10.218197094928252 -6.004293557311641 -10.457120275608489 C -5.829125285800357 -10.660074449106064 -5.652267247216685 -10.862215539384014 -5.467189057903475 -11.064746985938738 C -5.323269573549678 -11.222238376262732 -5.174379492969829 -11.379965808905169 -5.026004185594756 -11.530997256679772 C -4.925049907180754 -11.633758767996234 -4.8243339386902875 -11.733420429462242 -4.696792018130898 -11.833216638226466 C -4.623881359686005 -11.890266173464688 -4.542204099446561 -11.947359678161401 -4.489753341643337 -11.9570288005884 C -4.441485453885622 -11.965926824860482 -4.417968403687881 -11.934662904182037 -4.408715792817926 -11.897072122441982 C -4.392405269173395 -11.830807006248827 -4.42042109018242 -11.744881346970342 -4.45093972155348 -11.657274227112051 C -4.496994620350172 -11.525068526604484 -4.548749186396185 -11.389033624355106 -4.607260724935723 -11.25065039289586 C -4.683784202933568 -11.069667864796953 -4.771865037603922 -10.884668674163322 -4.862561545614064 -10.698636171269072 C -4.970589967962641 -10.47705324339079 -5.082329283385924 -10.254004340670154 -5.196549144481902 -10.029988422945433 C -5.323624396821058 -9.780759619830917 -5.453769985366941 -9.530333877989502 -5.584797114356607 -9.279311104593953 C -5.722647468420478 -9.01521634454315 -5.861473565752352 -8.750460753189781 -6.000000000000008 -8.485281374238564 C -6.138526434247657 -8.220101995287362 -6.276753205411089 -7.954498828738313 -6.413375227520083 -7.688666944977845 C -6.543234823712421 -7.435993030865795 -6.671644600838617 -7.183112480972936 -6.796140779747243 -6.930236317234608 C -6.908042475790868 -6.702942019053028 -7.016782349001543 -6.475651264475768 -7.120992871440821 -6.248669010765967 C -7.2084840175454765 -6.058103441592664 -7.2927825892965235 -5.867755323442083 -7.363507878182168 -5.678572917663496 C -7.417585993482532 -5.53391987893167 -7.463728531334937 -5.389948370298475 -7.5033966555474665 -5.248710406554164 C -7.5296830418311025 -5.155117988293949 -7.553126414858497 -5.06272591106659 -7.5255469516013545 -4.98052410763972 C -7.509901712546991 -4.933892784422067 -7.477837069677566 -4.8905407422616864 -7.420800478052531 -4.887037946600161 C -7.358821125066068 -4.883231600488663 -7.267354175170021 -4.92648039330159 -7.186424806767944 -4.972189760165634 C -7.0448558332349505 -5.052148720374442 -6.935532040069937 -5.139637079443169 -6.826255901546904 -5.230629703329271 C -6.665649725198194 -5.364364090321752 -6.505146487629419 -5.505668038848501 -6.350503978243014 -5.647994781741726 C -6.151636147687654 -5.8310247306315395 -5.962460528459262 -6.015746131306088 -5.775232644060338 -6.201645436700969 C -5.554822879226597 -6.420491162146109 -5.337112409906268 -6.640969303297288 -5.121538014509944 -6.8618264253829615 C -4.883892186939918 -7.105295847882287 -4.648842225621083 -7.349225827390734 -4.414469885613449 -7.593192489627048 C -4.169858180447208 -7.847817678125814 -3.925984598409844 -8.102482824591398 -3.68175026114739 -8.356620607564667 C -3.439387003191061 -8.608811440932259 -3.1966684963282863 -8.860482960119723 -2.9523549222714776 -9.11121593216773 C -2.722012436608785 -9.347610722109701 -2.4902520957242875 -9.583171237503512 -2.2550307473068454 -9.816408592415133 C -2.045596031454038 -10.024076814202072 -1.833417553722756 -10.229903318192115 -1.6168247828637279 -10.434033875158155 C -1.4372026717371067 -10.603320972978967 -1.2545446229670865 -10.771441680335354 -1.0617004651406345 -10.930289157655906 C -0.9168792009230259 -11.049579743083143 -0.766313333751821 -11.163640556832291 -0.6093119229042623 -11.277467278486213 C -0.5081449362381962 -11.35081379409801 -0.4043058307835017 -11.42406311172353 -0.2739991904092306 -11.455377494264189 C -0.19910355188060316 -11.473375891496872 -0.115464249463912 -11.477520902735584 -0.06405583469597251 -11.45238118390104 C 0.0013664895523910143 -11.420388389637091 0.014590583361673643 -11.340968695271332 0.018693462224073323 -11.26598921011462 C 0.025727567810912677 -11.137442003841343 0.005951904691725235 -11.02194579818522 -0.02101628596090342 -10.902990317284493 C -0.059684091645199985 -10.732428358575445 -0.11313879163014026 -10.554754583170396 -0.1721358204507058 -10.379103983748813 C -0.24681529096165944 -10.15676238414672 -0.3303752011556088 -9.937662507080788 -0.41787076658084954 -9.718175523032656 C -0.5197259476377233 -9.462666727916046 -0.6269146153494979 -9.20663333656266 -0.7365452674022546 -8.95095469274677 C -0.8563261920980005 -8.671603764810262 -0.9790222218002111 -8.392676314741827 -1.102715851008397 -8.113520419226791 C -1.2307969221516935 -7.82446279885934 -1.3599476180935224 -7.535160239602755 -1.4884784340720918 -7.245432386033956 C -1.6150452813754943 -6.960131614207386 -1.7410110476878673 -6.6744184458817895 -1.8649014639153028 -6.387704235349316 C -1.9807464223296138 -6.11960927847265 -2.0947768253984944 -5.850639073366457 -2.203511735587357 -5.580702275383154 C -2.299384492368389 -5.342696055169671 -2.3911404581508973 -5.103938391994053 -2.47775672031095 -4.862077405462495 C -2.548665580156194 -4.664076633225197 -2.6161298288389716 -4.463996024667004 -2.6643684456779377 -4.264836267714087 C -2.699902297472826 -4.118129878708457 -2.725003958944677 -3.971923161145802 -2.7445590144192726 -3.815650497513386 C -2.7567974980111165 -3.717847633583718 -2.766863458356837 -3.616102087977796 -2.7049864787574616 -3.5334907399469015 C -2.667848023551097 -3.48390755298065 -2.6047929914432113 -3.441217230043594 -2.538441558891647 -3.4286554520610375 C -2.441859249086618 -3.41037030754859 -2.3382924519944943 -3.4559222006803108 -2.244220003658132 -3.5022442739924253 C -2.0871620445033243 -3.5795809482990935 -1.956568371631925 -3.6590644016327483 -1.8281615053500064 -3.7461029635206575 C -1.648243186890329 -3.8680577479450355 -1.4726181032819134 -4.004845053684386 -1.3023531730699176 -4.143242716294628 C -1.0900099032206834 -4.315843217064572 -0.8860035183646708 -4.490948377503329 -0.6845127636756686 -4.66871237702545 C -0.45245826969455133 -4.873441050660304 -0.22374047073856437 -5.081696369530384 0.002916715036479653 -5.290878831796542 C 0.2484127476351577 -5.5174477111372235 0.49149139177058565 -5.745104259803805 0.733914619244677 -5.973049948321023 C 0.9829797299105743 -6.207240866113431 1.2313530178727206 -6.441736984437089 1.4802136763745448 -6.675356872002938 C 1.7233818175387843 -6.903632864441372 1.9670152877162521 -7.131072254006434 2.212746158327425 -7.35679919110479 C 2.440592682287602 -7.566097672220006 2.670242418001323 -7.773923895407871 2.9031310908657497 -7.977348135665471 C 3.106402257072858 -8.154901994525876 3.3121409243318425 -8.329102315788802 3.5251262658470743 -8.49999999999999 C 3.6971253045992762 -8.638010612374455 3.8738503175927104 -8.773867384644793 4.055970627199129 -8.892674530137397 C 4.187376313423492 -8.978397723314215 4.321590838881871 -9.055244729683544 4.477548220952878 -9.129860964620176 C 4.572316642371852 -9.175201959084628 4.675113519614759 -9.219719250839738 4.777314046252641 -9.193927352336802 C 4.843793502327896 -9.17715022368561 4.910020627575797 -9.130623521546905 4.9489343491839595 -9.076026031425148 C 5.0115163711174 -8.988220980067787 5.003455338664907 -8.879541741005939 4.992608538881955 -8.776548854007903 C 4.97501898426253 -8.6095319414148 4.950103693380684 -8.457468436832219 4.915056225380097 -8.305108821482644 C 4.866991672914365 -8.096160867653124 4.799870789653772 -7.886655996523244 4.729170044472351 -7.6800490712148015 C 4.642225082147901 -7.4259720980397965 4.54986625833291 -7.176277717722096 4.453352066572652 -6.927504383379844 C 4.343339027319042 -6.643936650002056 4.2279269616208985 -6.361565622101033 4.11056780599474 -6.080063314451498 C 3.984531233789085 -5.777747012541935 3.8562489952699575 -5.476432644737486 3.7271663228377054 -5.175099535652782 C 3.5955729405150496 -4.8679053764129385 3.463147683937575 -4.5606917397518 3.3315268997205916 -4.252857911188578 C 3.2039153100400637 -3.954400760563829 3.077059930360995 -3.6553606249389548 2.9526016653559686 -3.354393423079266 C 2.838190141392399 -3.0777214300506985 2.7258043441946533 -2.7994209335159557 2.6184288706985037 -2.5194685924704245 C 2.5256897649332863 -2.2776765991957912 2.436688160956008 -2.0346523957526808 2.3546930277457356 -1.7845171747539932 C 2.289425973432092 -1.585412808244698 2.2285981853082646 -1.3818029352030248 2.183405718888439 -1.1807785086403304 C 2.1515151061512405 -1.0389231808369328 2.1274102435310986 -0.8983552995349529 2.121774699146298 -0.7326981516158706 C 2.1184454004396116 -0.6348332266571045 2.1215620176994197 -0.5282119793363492 2.181319261749729 -0.45667678440859577 C 2.2250592210574927 -0.4043158269223591 2.2991453359403526 -0.3707528041477589 2.3672772140954783 -0.36023151485268584 C 2.4837792114860906 -0.342240652848124 2.582871475597787 -0.391622059113299 2.6783338631873974 -0.44161257199866977 C 2.8286422607081283 -0.5203241365505844 2.96995166848604 -0.6005457646526156 3.106686903502794 -0.6898950380635995 C 3.290497541056524 -0.8100056072861048 3.466042225005049 -0.9466106765172804 3.638443881903067 -1.085540915432336 C 3.847660564999843 -1.2541386208757621 4.0522485604664995 -1.426160567975641 4.254331866344703 -1.601402716601947 C 4.482399295488255 -1.799177719050106 4.707276512451445 -2.0010542781063947 4.930682941612298 -2.2041171325463353 C 5.168615911815476 -2.4203837291537385 5.4048806058820436 -2.6379959095879704 5.640645016431236 -2.855817339604461 C 5.879146165305487 -3.0761672269659623 6.117135348733385 -3.2967312500166477 6.355555876877415 -3.516076171620572 C 6.584903472131744 -3.727074069715653 6.814650207679937 -3.9369438851160563 7.046410053009705 -4.143980549937719 C 7.25759194763023 -4.332634434611923 7.470445334772942 -4.518935943846927 7.685343308048973 -4.7002308355801805 C 7.868925321537327 -4.855106569176764 8.053999445672812 -5.006328542651081 8.247058656089408 -5.149157490448092 C 8.398394146291567 -5.261118420896716 8.554636230653335 -5.367922090757295 8.710120811559724 -5.460551673072786 C 8.817251146877574 -5.5243743245277575 8.924021869602083 -5.581468055679949 9.058052717814181 -5.611215932167733 C 9.13536124801392 -5.628374404553096 9.221739065342 -5.636435068205541 9.280177947622732 -5.586155508956525 C 9.329770841566393 -5.543486848091451 9.359242949144052 -5.458803301563915 9.372165794893755 -5.379349181603803 C 9.39486977216478 -5.239757286087666 9.366491949394636 -5.116306806727982 9.336251116962654 -4.994060137688651 C 9.289980691671321 -4.807014844553251 9.239348779138327 -4.622787788736288 9.181117659013688 -4.442670938759847 C 9.104283812371229 -4.205013301414191 9.014219864322573 -3.974511468067132 8.921450842054991 -3.7460510359878896 C 8.810281280708365 -3.472275961092177 8.695227130947544 -3.201432415268086 8.577182939112006 -2.9324892572953694 C 8.445235139818212 -2.6318691481834815 8.309551465361412 -2.3336234577575565 8.172469332434833 -2.0362459858516346 C 8.027664179572772 -1.7221146737853577 7.881298554999539 -1.4089521644893153 7.734448329256592 -1.0957992443854954 C 7.587032498108573 -0.7814401907307827 7.43912832564151 -0.46709080027762884 7.291848108390528 -0.15187459011680077 C 7.151294665467052 0.1489446538410885 7.011309483167786 0.45055334469430997 6.873512205995411 0.7546401930559612 C 6.7490811222046485 1.029230931600272 6.626434080031829 1.3058423867088031 6.5069191245007865 1.584788713196831 C 6.405982704640875 1.8203729829952846 6.307280294468073 2.0576226362510077 6.216771949917435 2.3035405818785777 C 6.1469721967084325 2.49319173503679 6.082045820046172 2.687998308555685 6.0237302741270895 2.881584775801156 C 5.984565031266317 3.0115991807892915 5.948381660389835 3.1410632463638306 5.943349424199103 3.296829821696152 C 5.940489546839383 3.3853537473049258 5.947690797064794 3.4823728018761533 5.9852813742385695 3.5355339059327346 C 6.022871951412341 3.5886950099893102 6.09085185553447 3.5979981635312486 6.1527783014464985 3.5930069802520017 C 6.261743988811641 3.5842245011547647 6.351967036207075 3.5311840790195683 6.442524234557109 3.4738488744812117 C 6.577360433006262 3.3884789518454186 6.712937446425064 3.2935874670179435 6.844803424832753 3.1917112113010333 C 7.015792158453249 3.059609723401128 7.180541180425045 2.915764084300334 7.343996809430276 2.7685953279840336 C 7.537538370137222 2.594338430512209 7.729266590975266 2.415422515176763 7.919381118967287 2.2337221942452508 C 8.129917453700694 2.0325039076006357 8.338474794886226 1.8278708938455575 8.546189667602363 1.6220322547687998 C 8.763845606465054 1.406342344573025 8.980576507460494 1.189328647058455 9.196880450118375 0.9723920949872475 C 9.412354477304124 0.7562878855854477 9.62740481617653 0.540260230779038 9.842546543955617 0.32559985689130816 C 10.046213929698178 0.12238815257178969 10.249963216054299 -0.07959822637488959 10.454396519594777 -0.2777083523056734 C 10.63728827095299 -0.4549432121146263 10.820727481760947 -0.6290756771421497 11.005228974058152 -0.7991437407325404 C 11.15919218880859 -0.9410625158640693 11.31389513450692 -1.080151002076754 11.470825603532234 -1.2045349097483198 C 11.5897606483381 -1.2988034461512816 11.709975155156938 -1.3846258534241036 11.831191406775769 -1.4656817425238797 C 11.910414373285327 -1.5186572132367235 11.99006523517499 -1.5695966652894884 12.071578447020132 -1.5618031985251424 C 12.117974840509394 -1.5573672458438637 12.164974590125567 -1.5339032547880314 12.183240694818744 -1.4806047994518288 C 12.204764962854092 -1.4177993870337673 12.186390818144826 -1.313567007272625 12.163881259044434 -1.2189110867544821 C 12.124856130881843 -1.0548048324696555 12.07340092815551 -0.9194831427263106 12.017769081363706 -0.7828306303560707 C 11.937027297462752 -0.5844987708258159 11.84748765061131 -0.3833636091948072 11.755519112762267 -0.1874451295716733 C 11.638194529635147 0.06248875527938881 11.51691712229792 0.303932910884669 11.393547240548362 0.5439614578056486 C 11.249132561530985 0.8249347802002329 11.101850639272623 1.1039683443793662 10.953227906495588 1.3810942441833483 C 10.790123102351338 1.6852237993748718 10.625403454745602 1.987055804465149 10.459797596785425 2.2881981319308564 C 10.28764041294914 2.6012535737429907 10.114525515347424 2.9135636916583234 9.941060410974831 3.2258884351971733 C 9.76958577332091 3.5346293339640087 9.597768919846782 3.843384524629701 9.425962062603265 4.1531675670116375 C 9.264644543432421 4.444037400032434 9.103335837151562 4.735813409035542 8.943105408215992 5.0295244172085525 C 8.801130313818799 5.289772413721284 8.66000179321906 5.551539610839026 8.519283598812684 5.817008807990455 C 8.403327024450311 6.035764448156727 8.287649074706477 6.25703386483519 8.178106044391168 6.482174691459301 C 8.096617877036165 6.6496551172388445 8.018524621228229 6.819277884817826 7.93878762465634 6.997792481707242 C 7.888145849495853 7.111168912563754 7.8368410470203 7.228131995186159 7.8151632109700415 7.344242748189787 C 7.80248573146305 7.4121458215561535 7.799940858170908 7.47975739290816 7.814978015180416 7.510519830474989 C 7.835521679954254 7.552547269877226 7.888881930475524 7.525796374932808 7.939490142102349 7.494793929839954 C 8.025155277010663 7.442315714230389 8.102935065227875 7.3776556406671805 8.183405718888437 7.30450286559826 C 8.297441386478312 7.200837427807435 8.416880842558236 7.080116970502562 8.535149926666389 6.955968793361958 C 8.683731617813393 6.800001185669142 8.830466116957009 6.638623625565355 8.977460041496947 6.473559532826039 C 9.147652994278832 6.282444522940479 9.318193720864112 6.086387516264413 9.488270085536291 5.888437495913291 C 9.673281249902933 5.673105025571791 9.85774291826906 5.455532484686135 10.04184174136957 5.236960345664832 C 10.231724427813427 5.011521289400537 10.421221111709366 4.785018839277166 10.610083559050256 4.558815368490558 C 10.795342642710583 4.336927702050054 10.979991460522843 4.115327715146551 11.1639908335044 3.8949831922074107 C 11.335322143702397 3.6898090375438546 11.506090357112116 3.485723424497249 11.67513234439723 3.2856352299982152 C 11.823432499424854 3.110098307249216 11.970404062200123 2.937638003047477 12.11710774838026 2.76807262761928 C 12.236402295833063 2.630187716530315 12.355519712558737 2.4942170482231463 12.466900917978148 2.374812363724801 C 12.548117303704135 2.2877454579825756 12.625220375905766 2.209486621532603 12.706059855120422 2.1319186101211596 C 12.75591044341396 2.084085409818714 12.807181880099703 2.036514910459144 12.821642697070047 2.057664886763242 C 12.830634483983054 2.0708160165044984 12.825393826910517 2.110537204780625 12.806881322558942 2.1615955898027557 C 12.778421587690243 2.2400889191199287 12.7185955935436 2.345376216536925 12.661528541702861 2.444034999178961 C 12.567615106464293 2.6063946251891914 12.481173504947591 2.7508027485110698 12.39187107270709 2.8960689344919084 C 12.268103319000629 3.0973990559373465 12.138840401979902 3.3003773680309187 12.010407640085663 3.4999999999999885 C 11.851370148642465 3.7471914654439327 11.69360559341871 3.9892374265898916 11.535208694929569 4.230253083458621 C 11.353732668775468 4.506385785971455 11.171426604436498 4.781166071310034 10.988990577757477 5.0546846935543694 C 10.792234608487057 5.349672600344722 10.59532747390405 5.643193007427483 10.39795158210326 5.936229019967298 C 10.19595516032386 6.236124946696224 9.993467777414349 6.535513534267049 9.790429581917968 6.834796339726345 C 9.592805858060554 7.126098093845872 9.39466030723107 7.4172996324651095 9.195450032464223 7.709326458276299 C 9.011526733263958 7.978943762509409 8.826695849613468 8.249264552215232 8.641238773808002 8.519891926605643 C 8.480208123095831 8.754875153906854 8.318705368141725 8.990089524202999 8.15377587021074 9.229743224263027 C 8.021529110164828 9.421906698738741 7.887079144962421 9.616924415360177 7.755464615217512 9.807191072898972 C 7.661531938064906 9.94298350060537 7.56904352127944 10.07635592389345 7.463983928841243 10.227229393631998 C 7.401056757655096 10.317597540293814 7.333619541322112 10.414244376537965 7.29138297257626 10.472815716088622 C 7.262366718481616 10.51305385383347 7.245244168602129 10.535321870217278 7.243464391903041 10.535743405943602 C 7.240499077220753 10.536445733420425 7.28012442617829 10.476503476084801 7.319487800925817 10.417061001105397 C 7.382383908199122 10.322081840734237 7.4446111767260685 10.228378660180226 7.512208708199177 10.12701716183512 C 7.6039750452350106 9.989414897123805 7.705638316194621 9.83769900968943 7.808250888114383 9.684534057045493 C 7.933593721855008 9.49744071326739 8.060353007367272 9.30818521958165 8.188793109825907 9.116236181315918 C 8.334464554711813 8.898535531648228 8.482298060818536 8.677370133308454 8.63053502175745 8.455084385714505 C 8.789067072201377 8.217360844113756 8.94806056352798 7.978355932437593 9.106892680235045 7.738685142195288 C 9.26818943368125 7.495295321777119 9.429319765472599 7.25121879725871 9.589362439252 7.007361708814452 C 9.743922820198609 6.771857992234294 9.89746878272777 6.536558935568028 10.048983288187731 6.302086067930941 C 10.18765840754601 6.087482503690399 10.324631774706216 5.8735710382481745 10.457822677858948 5.6623776463062745 C 10.57223623306474 5.480958448477619 10.683858654586055 5.301544955525106 10.790409671260502 5.124276528761214 C 10.874585327014263 4.984233885030475 10.955595892488343 4.8455299883230705 11.025041955468392 4.718495058507892 C 11.07347590803894 4.629896749238167 11.116284744144345 4.546974369203664 11.144899717025524 4.468842573185956 C 11.161590363182722 4.4232695731215115 11.17345197560918 4.3793264247360355 11.138909283270454 4.3910040247197735 C 11.111765871975415 4.400180202887628 11.055969153456658 4.443700573886315 11.002312259021673 4.491735091064003 C 10.908957695470322 4.5753076018054974 10.82208049305545 4.672544672753601 10.736910984287533 4.768515038572725 C 10.604736116987262 4.917451794818052 10.476674067237461 5.063337812369687 10.350977730401226 5.209675129479056 C 10.183600347321399 5.404538065036209 10.020417755409643 5.6002012276150275 9.858832288692703 5.794995992579654 C 9.663988548424566 6.02988432357571 9.471467049124378 6.263509993058013 9.280109603952987 6.496743336213658 C 9.065191288717385 6.758693516008768 8.85174132251751 7.020148811614917 8.638754993197328 7.281088913245556 C 8.412850287898419 7.557855957157193 8.187467167571915 7.834043415088356 7.961798454164594 8.109843899781303 C 7.7343875457428055 8.387773603993276 7.506686617579128 8.665310336924769 7.277970891809381 8.94241583504852 C 7.058829130752741 9.20792178857639 6.838755752114259 9.473031854366262 6.616233194295746 9.737888810142426 C 6.414377490140211 9.97814709151762 6.210506417211622 10.218197094943232 6.00429355731162 10.457120275608515 C 5.829125285960075 10.660074449093358 5.652267247769458 10.86221553933999 5.467189057903485 11.06474698593873 C 5.323269573119834 11.222238376296964 5.174379491538208 11.379965809019193 5.026004185594756 11.530997256679775 C 4.925049908154836 11.633758767918646 4.824333941764973 11.73342042921734 4.69679201813091 11.833216638226453 C 4.623881357928344 11.890266173604672 4.542204094239969 11.947359678576094 4.489753341643336 11.957028800588404 C 4.441485458676998 11.965926824478863 4.417968420600671 11.934662902834985 4.408715792817924 11.897072122441976 C 4.39240523935948 11.83080700862339 4.4204209403316295 11.744881358905435 4.450939721553483 11.657274227112048 C 4.496994846486233 11.525068508593538 4.548750253285344 11.389033539381074 4.607260724935715 11.25065039289587 C 4.683782807617835 11.069667975929054 4.771858984075939 10.884669156305975 4.862561545614058 10.698636171269083 C 4.970597178307248 10.47705266911169 5.082358900973789 10.254001981731339 5.196549144481906 10.02998842294543 C 5.323591445787713 9.780762244267184 5.453639688709818 9.53034425566927 5.5847971143566095 9.279311104593944 C 5.722784550263427 9.015205426446698 5.861999697938015 8.750418848574093 6.000000000000001 8.485281374238571 " stroke="#191919" stroke-width="0.7 px" style="stroke-width:0.7;stroke-miterlimit:4;stroke-dasharray:none;stroke-linecap:square;fill:none;fill-opacity:1;fill-rule: evenodd"/>
<title>b'Sine'</title>
</g>
</svg>