<?xml version="1.0" encoding="UTF-8" standalone="no"?>
<!-- Created with Inkscape (http://www.inkscape.org/) -->

<svg
   xmlns:dc="http://purl.org/dc/elements/1.1/"
   xmlns:cc="http://creativecommons.org/ns#"
   xmlns:rdf="http://www.w3.org/1999/02/22-rdf-syntax-ns#"
   xmlns:svg="http://www.w3.org/2000/svg"
   xmlns="http://www.w3.org/2000/svg"
   xmlns:sodipodi="http://sodipodi.sourceforge.net/DTD/sodipodi-0.dtd"
   xmlns:inkscape="http://www.inkscape.org/namespaces/inkscape"
   version="1.1"
   id="svg2"
   width="64"
   height="64"
   viewBox="0 0 64 64"
   sodipodi:docname="TearDrop.svg"
   inkscape:version="0.92.3 (2405546, 2018-03-11)">
  <metadata
     id="metadata8">
    <rdf:RDF>
      <cc:Work
         rdf:about="">
        <dc:format>image/svg+xml</dc:format>
        <dc:type
           rdf:resource="http://purl.org/dc/dcmitype/StillImage" />
        <dc:title></dc:title>
      </cc:Work>
    </rdf:RDF>
  </metadata>
  <defs
     id="defs6" />
  <sodipodi:namedview
     pagecolor="#ffffff"
     bordercolor="#666666"
     borderopacity="1"
     objecttolerance="10"
     gridtolerance="10"
     guidetolerance="10"
     inkscape:pageopacity="0"
     inkscape:pageshadow="2"
     inkscape:window-width="1920"
     inkscape:window-height="993"
     id="namedview4"
     showgrid="false"
     inkscape:zoom="1.0860157"
     inkscape:cx="80.296564"
     inkscape:cy="340"
     inkscape:window-x="0"
     inkscape:window-y="30"
     inkscape:window-maximized="1"
     inkscape:current-layer="svg2" />
  <path
     style="fill:#4682c1;fill-opacity:1;stroke-width:0.14914165"
     d="M 27.789931,62.366812 C 18.425711,60.563325 10.945144,53.343782 8.8420561,44.080097 7.3354285,37.443698 8.7549022,30.476871 12.759685,24.852239 13.680203,23.559394 30.772455,2.982809 32.070329,1.6050364 c 0.186873,-0.1983781 0.227177,-0.1947551 0.355883,0.03199 0.214679,0.378196 17.389314,20.8569326 17.86982,21.3076576 0.225883,0.211885 0.448866,0.480339 0.495519,0.596567 0.04665,0.116227 0.491232,0.771016 0.987954,1.455087 1.732901,2.386495 3.165608,5.618935 3.823875,8.627336 2.613482,11.944072 -4.196271,23.974891 -15.781729,27.881646 -3.811245,1.2852 -8.200058,1.599445 -12.03172,0.861492 z"
     id="path817"
     inkscape:connector-curvature="0" />
</svg>
