<?xml version="1.0" encoding="UTF-8" standalone="no"?>
<svg
   xmlns:dc="http://purl.org/dc/elements/1.1/"
   xmlns:cc="http://creativecommons.org/ns#"
   xmlns:rdf="http://www.w3.org/1999/02/22-rdf-syntax-ns#"
   xmlns:svg="http://www.w3.org/2000/svg"
   xmlns="http://www.w3.org/2000/svg"
   xmlns:sodipodi="http://sodipodi.sourceforge.net/DTD/sodipodi-0.dtd"
   xmlns:inkscape="http://www.inkscape.org/namespaces/inkscape"
   width="64"
   height="64"
   viewBox="0 0 16.933333 16.933333"
   version="1.1"
   id="svg6"
   sodipodi:docname="TriangleWall.svg"
   inkscape:version="0.92.5 (2060ec1f9f, 2020-04-08)">
  <metadata
     id="metadata12">
    <rdf:RDF>
      <cc:Work
         rdf:about="">
        <dc:format>image/svg+xml</dc:format>
        <dc:type
           rdf:resource="http://purl.org/dc/dcmitype/StillImage" />
        <dc:title></dc:title>
      </cc:Work>
    </rdf:RDF>
  </metadata>
  <defs
     id="defs10" />
  <sodipodi:namedview
     pagecolor="#ffffff"
     bordercolor="#666666"
     borderopacity="1"
     objecttolerance="10"
     gridtolerance="10"
     guidetolerance="10"
     inkscape:pageopacity="0"
     inkscape:pageshadow="2"
     inkscape:window-width="1920"
     inkscape:window-height="998"
     id="namedview8"
     showgrid="false"
     inkscape:zoom="6.4253154"
     inkscape:cx="21.114311"
     inkscape:cy="20.966807"
     inkscape:window-x="0"
     inkscape:window-y="30"
     inkscape:window-maximized="1"
     inkscape:current-layer="svg6"
     units="px" />
  <g
     id="TriangleWall003"
     transform="matrix(0.83437902,0,0,-0.83026119,8.5322803,8.4422282)">
    <path
       id="TriangleWall003_w0000"
       d="m -5,5 -5,-1 5,-1 -5,-1 5,-1 -5,-1 5,-1 -5,-1 5,-1 -5,-1 5,-1 1,-5 1,5 1,-5 1,5 1,-5 1,5 1,-5 1,5 1,-5 1,5 5,1 -5,1 5,1 -5,1 5,1 L 5,1 10,2 5,3 10,4 5,5 4,10 3,5 2,10 1,5 0,10 -1,5 -2,10 -3,5 -4,10 -5,5"
       style="fill:#1515ff;fill-opacity:1;fill-rule:evenodd;stroke:#191919;stroke-width:0.69999999;stroke-linecap:square;stroke-miterlimit:4;stroke-dasharray:none"
       inkscape:connector-curvature="0" />
    <title
       id="title3">b'TriangleWall012'</title>
  </g>
</svg>
